<svg xmlns="http://www.w3.org/2000/svg" class="five-gold-star" viewBox="0 0 63.8 12">
    <path
        d="M28.7 11.6c-.3.1-.6-.1-.6-.4l.6-3.5-2.6-2.5c-.2-.2-.1-.7.2-.7l3.7-.7L31.6.6c.1-.3.5-.3.7 0L34 3.8l3.7.5c.3 0 .5.5.2.7l-2.6 2.5.6 3.5c.1.3-.3.6-.6.4L32 9.9l-3.3 1.7zm25.7 0c-.3.1-.6-.1-.6-.4l.6-3.5-2.6-2.5c-.2-.2-.1-.7.2-.7l3.7-.5L57.3.8c.1-.3.5-.3.7 0L59.6 4l3.7.5c.3 0 .5.5.2.7l-2.6 2.5.6 3.5c.1.3-.3.6-.6.4l-3.3-1.7-3.2 1.7zM3 11.6c-.3.1-.6-.1-.6-.4L3 7.6.4 5.1c-.2-.3-.1-.7.2-.7l3.7-.5L5.9.7c.1-.3.5-.3.7 0l1.6 3.2 3.7.5c.3 0 .5.5.2.7L9.5 7.6l.6 3.5c.1.3-.3.6-.6.4L6.3 9.9 3 11.6zm12.8 0c-.3.1-.6-.1-.6-.4l.6-3.5-2.6-2.5c-.2-.2-.1-.7.2-.7l3.7-.5L18.7.8c.1-.3.5-.3.7 0L21 4l3.7.5c.3 0 .5.5.2.7l-2.6 2.5.6 3.5c.1.3-.3.6-.6.4L19 9.9l-3.2 1.7zm25.7 0c-.3.1-.6-.1-.6-.4l.6-3.5L39 5.1c-.2-.2-.1-.7.2-.7l3.7-.5L44.5.7c.1-.3.5-.3.7 0l1.6 3.2 3.7.5c.3 0 .5.5.2.7l-2.6 2.5.6 3.5c.1.3-.3.6-.6.4l-3.3-1.7-3.3 1.8z"
        fill="#d4af37" title="5 gold stars"/>
</svg>