<?xml version="1.0" encoding="UTF-8"?><svg xmlns="http://www.w3.org/2000/svg" viewBox="0 0 141.05 53.84"><defs><style>.d{fill:none;stroke:#000;stroke-miterlimit:10;stroke-width:1.75px;}</style></defs><g id="a"/><g id="b"><g id="c"><path class="d" d="M91.66,52.19V31.75c-.66,0-1.23,0-1.81,0-26.71,0-53.42,0-80.13,.01-3.14,0-5.82-.93-7.45-3.7-.74-1.26-1.26-2.82-1.3-4.27-.15-4.99-.08-9.99-.05-14.99,.03-4.08,3.08-7.4,7.15-7.85,.44-.05,.88-.07,1.32-.07,40.75,0,81.49,0,122.24,0,4.57,0,7.81,2.7,8.47,7.03,.04,.24,.05,.48,.05,.72,0,5.08,.05,10.16,0,15.23-.04,4.4-3.52,7.79-8.02,7.87-3.33,.06-6.66,.05-9.98,0-.94-.01-1.86,.27-2.63,.82-8.83,6.27-17.69,12.51-26.54,18.76-.34,.24-.7,.47-1.31,.89Z"/></g></g></svg>