<?xml version="1.0" encoding="UTF-8"?><svg xmlns="http://www.w3.org/2000/svg" viewBox="0 0 24.1 24.05"><defs><style>.d{fill:none;stroke:#000;stroke-miterlimit:10;stroke-width:1.75px;}</style></defs><g id="a"/><g id="b"><g id="c"><path class="d" d="M4.96,22.76l.3,.19c1.64-1.19,3.26-2.41,4.92-3.56,1.87-1.3,1.15-1.32,2.99-.03,1.69,1.18,3.34,2.41,5.01,3.62l.26-.18c-.56-1.77-1.12-3.53-1.69-5.3q-.76-2.36,1.23-3.78c1.5-1.08,2.98-2.19,4.47-3.28-.49-.27-.87-.3-1.26-.3-1.92,0-3.84-.04-5.75,.01-.82,.02-1.21-.25-1.45-1.05-.59-1.99-1.26-3.95-1.91-5.92-.08-.23-.22-.44-.47-.92-.7,2.15-1.29,4.04-1.94,5.92-.75,2.18-.12,1.94-2.66,1.96-1.97,.01-3.94,0-5.91,0l-.09,.31c.29,.23,.58,.47,.89,.69,1.48,1.08,2.94,2.21,4.47,3.23,.85,.56,1.03,1.1,.68,2.06-.76,2.08-1.39,4.21-2.08,6.32Z"/></g></g></svg>