<?xml version="1.0" encoding="UTF-8"?><svg xmlns="http://www.w3.org/2000/svg" viewBox="0 0 24.16 25.03"><defs><style>.d{fill:none;stroke:#000;stroke-miterlimit:10;stroke-width:1.75px;}</style></defs><g id="a"/><g id="b"><g id="c"><path class="d" d="M1.11,9.97l-.1,.34c1.64,1.19,3.31,2.36,4.93,3.58,1.8,1.36,1.59,.77,.94,2.86-.62,1.96-1.25,3.92-1.87,5.88,.61-.09,1-.34,1.38-.61,1.55-1.12,3.12-2.23,4.65-3.39,.54-.42,.93-.4,1.46,0,1.36,1.05,2.76,2.04,4.16,3.05,.53,.38,1.08,.75,1.89,1.31-.17-.68-.24-1.02-.35-1.35-.58-1.79-1.11-3.59-1.76-5.35-.34-.93-.24-1.5,.64-2.08,1.63-1.07,3.17-2.29,4.77-3.43,.24-.17,.58-.21,.87-.32l-.4-.5c-2.27,0-4.54-.03-6.81,.02-.81,.02-1.24-.22-1.46-1.03-.39-1.42-.87-2.82-1.34-4.23-.26-.8-.56-1.6-.84-2.4-.98,2.13-1.73,4.23-2.34,6.36-.28,.97-.71,1.34-1.74,1.31-2.22-.08-4.45-.02-6.67-.02Z"/></g></g></svg>