<?xml version="1.0" encoding="UTF-8"?><svg xmlns="http://www.w3.org/2000/svg" viewBox="0 0 25.71 25.21"><defs><style>.d{fill:none;stroke:#000;stroke-miterlimit:10;stroke-width:1.75px;}</style></defs><g id="a"/><g id="b"><g id="c"><path class="d" d="M1.41,10.1c.14,.29,.16,.38,.21,.42,1.8,1.33,3.59,2.68,5.43,3.95,.69,.48,.81,.92,.54,1.69-.67,1.88-1.26,3.79-1.87,5.69-.1,.3-.15,.62-.3,1.28,1.66-1.2,3.02-2.17,4.37-3.16q2.4-1.76,4.74-.03c1.37,1.01,2.76,2,4.14,3,.13-.49,.06-.82-.04-1.14-.5-1.56-1.02-3.11-1.51-4.68-.78-2.5-.95-1.72,1.05-3.22,1.57-1.19,3.18-2.33,5.05-3.71-.76-.05-1.14-.09-1.52-.09-1.96,0-3.92-.03-5.88,.01-.71,.01-1.08-.22-1.29-.92-.6-1.99-1.26-3.96-1.92-5.93-.09-.27-.26-.51-.52-1.02-.8,2.45-1.54,4.6-2.19,6.77-.25,.84-.66,1.13-1.53,1.1-2.27-.06-4.54-.02-6.97-.02Z"/></g></g></svg>