<?xml version="1.0" encoding="UTF-8"?><svg xmlns="http://www.w3.org/2000/svg" viewBox="0 0 24.56 24.2"><defs><style>.d{fill:none;stroke:#000;stroke-miterlimit:10;stroke-width:1.75px;}</style></defs><g id="a"/><g id="b"><g id="c"><path class="d" d="M4.97,22.51l.23,.19c.34-.22,.69-.43,1.02-.67,1.59-1.15,3.19-2.28,4.74-3.47,.54-.41,.92-.43,1.46-.01,1.2,.93,2.45,1.79,3.68,2.68,.69,.5,1.39,.98,2.09,1.47,.11-.54,.02-.91-.09-1.28-.6-1.86-1.19-3.73-1.83-5.58-.23-.67-.13-1.09,.48-1.51,1.61-1.11,3.18-2.28,4.77-3.43,.32-.23,.61-.51,.91-.77-2.41-.24-4.68-.28-6.95-.22-.89,.02-1.27-.3-1.5-1.13-.39-1.42-.9-2.81-1.36-4.22-.25-.77-.52-1.53-.78-2.3-.87,1.77-1.46,3.53-2.03,5.3q-.76,2.32-3.24,2.33c-1.81,0-3.63,0-5.44,0l-.1,.32c.29,.23,.57,.47,.87,.69,1.42,1.04,2.8,2.13,4.28,3.08,1.01,.65,1.24,1.27,.79,2.43-.78,1.99-1.34,4.05-1.99,6.09Z"/></g></g></svg>