<?xml version="1.0" encoding="UTF-8"?><svg xmlns="http://www.w3.org/2000/svg" viewBox="0 0 144.35 58.69"><g id="a"/><g id="b"><g id="c"><path d="M90.81,58.69v-22.81h-2.51c-25.75,0-51.5,0-77.26,.01-4.14,0-7.34-1.63-9.55-5.14C.4,29.01,0,27.06,0,25.03c0-4.72,0-9.44,.02-14.16C.04,4.5,4.54,0,10.9,0,32.42,0,53.93,0,75.44,0c19.23,0,38.47,0,57.7,0,6.72,0,11.15,4.37,11.18,11.06,.02,4.68,.03,9.36,.01,14.04-.02,6.22-4.53,10.74-10.75,10.78-3.08,.02-6.16-.04-9.24,.04-.74,.02-1.58,.28-2.19,.71-9.69,6.79-19.34,13.63-29.01,20.45-.71,.5-1.44,.99-2.34,1.62Zm2.49-4.87c.61-.42,.96-.65,1.31-.89,8.85-6.25,17.7-12.49,26.54-18.76,.83-.59,1.65-.83,2.66-.82,3.32,.05,6.64,.06,9.96,0,4.51-.08,7.98-3.47,8.02-7.87,.05-5.08,.01-10.16,0-15.23,0-.36-.04-.72-.11-1.07-.78-4.12-3.97-6.68-8.41-6.68-40.75,0-81.49,0-122.24,0-.44,0-.88,.02-1.32,.07-4.07,.45-7.12,3.77-7.15,7.85-.03,5-.11,10,.05,14.99,.04,1.44,.56,3.01,1.3,4.27,1.63,2.77,4.3,3.71,7.45,3.7,26.71-.02,53.42-.01,80.13-.01,.58,0,1.16,0,1.81,0v20.45Z"/></g></g></svg>