<?xml version="1.0" encoding="UTF-8"?><svg xmlns="http://www.w3.org/2000/svg" viewBox="0 0 24.28 25.14"><defs><style>.d{fill:none;stroke:#000;stroke-miterlimit:10;stroke-width:1.75px;}</style></defs><g id="a"/><g id="b"><g id="c"><path class="d" d="M5.2,22.97l.29,.21c1.7-1.23,3.45-2.41,5.09-3.72,.95-.76,1.64-.91,2.65-.04,1.39,1.2,2.94,2.2,4.43,3.27,.25,.18,.54,.31,1.11,.62-.83-2.59-1.53-4.82-2.28-7.04-.21-.63-.13-1.01,.45-1.39,1.06-.7,2.07-1.49,3.1-2.25,.87-.64,1.75-1.29,2.62-1.93-.5-.28-.88-.31-1.26-.31-1.88,0-3.76-.06-5.63,.02-.94,.04-1.33-.32-1.58-1.18-.55-1.88-1.18-3.73-1.79-5.58-.1-.31-.26-.59-.53-1.2-.75,2.3-1.49,4.24-1.99,6.24-.35,1.39-1.01,1.83-2.41,1.74-2.04-.13-4.1-.03-6.16-.03,.21,.51,.48,.77,.79,.99,1.39,1.01,2.72,2.12,4.19,2.99,1.21,.73,1.34,1.47,.85,2.73-.75,1.92-1.29,3.91-1.92,5.88Z"/></g></g></svg>