<?xml version="1.0" encoding="iso-8859-1"?>
<!-- Generator: Adobe Illustrator 26.2.1, SVG Export Plug-In . SVG Version: 6.00 Build 0)  -->
<svg version="1.1" id="Layer_1" xmlns="http://www.w3.org/2000/svg" xmlns:xlink="http://www.w3.org/1999/xlink" x="0px" y="0px"
	 viewBox="0 0 225 225" style="enable-background:new 0 0 225 225;" xml:space="preserve">
<rect x="228.711" y="-1334.427" transform="matrix(-1 -1.224647e-16 1.224647e-16 -1 764.9518 -1959.5094)" style="fill:#FFFFFF;stroke:#231F20;stroke-width:5;stroke-miterlimit:10;" width="307.53" height="709.344"/>
<text transform="matrix(1 0 0 1 778.2409 678.0154)"><tspan x="0" y="0" style="font-family:'Roboto-Bold'; font-size:72px; letter-spacing:21;">b</tspan><tspan x="62.135" y="0" style="stroke:#AAA200;stroke-miterlimit:10; font-family:'Roboto-Bold'; font-size:72px; letter-spacing:21;">bb</tspan></text>
<text transform="matrix(1 0 0 1 921.2409 331.0154)" style="font-family:'Cresta-Black'; font-size:72px; letter-spacing:21;">                </text>
<g>
	<rect id="XMLID_00000071522040789806028640000007124510523332737156_" style="fill:#FFFFFF;" width="225" height="225"/>
	
		<circle id="XMLID_00000095299342342575836780000014822354851797651379_" style="fill:#FF0000;stroke:#000000;stroke-width:4;stroke-miterlimit:10;" cx="34.842" cy="34.934" r="28.11"/>
	<g id="XMLID_00000000933921020188476230000016953339348102111111_">
		<path d="M51.147,42.039c0,6.124-5.719,10.325-15.336,10.325H19.666V15.923h14.931c10.224,0,15.032,4.049,15.032,9.465
			c0,3.34-2.177,6.528-6.681,7.896v0.101C48.111,34.295,51.147,38.192,51.147,42.039z M29.738,23.514v6.884h3.745
			c4.707,0,5.922-1.468,5.922-3.442c0-1.974-1.215-3.441-5.922-3.441H29.738z M40.924,41.026c0-2.024-1.569-3.694-5.973-3.694
			h-5.213v7.44h5.213C39.354,44.772,40.924,43.052,40.924,41.026z"/>
	</g>
	<g id="XMLID_00000114756217798508196760000006475536260026485893_">
		<path d="M90.201,46.795v0.428h-7.774c-0.606-0.642-0.999-1.319-1.569-2.604l-1.426-3.28c-0.749-1.747-1.854-2.532-3.423-2.532
			h-1.391v8.416h-7.203V21.548h10.092c6.989,0,11.019,2.853,11.019,7.702c0,3.388-2.247,5.777-5.278,6.954v0.143
			c1.391,0.57,2.211,1.391,3.174,3.565l1.462,3.316C88.596,44.869,89.167,45.689,90.201,46.795z M77.007,33.101
			c3.031,0,4.244-1.284,4.244-2.817s-1.212-2.817-4.244-2.817h-2.46v5.635H77.007z"/>
		<path d="M118.05,34.385c0,8.023-5.991,13.266-13.551,13.266s-13.551-5.242-13.551-13.266s5.991-13.265,13.551-13.265
			S118.05,26.361,118.05,34.385z M110.703,34.385c0-4.101-2.567-6.847-6.205-6.847s-6.205,2.746-6.205,6.847
			c0,4.102,2.567,6.847,6.205,6.847S110.703,38.486,110.703,34.385z"/>
		<path d="M151.425,21.548v25.675h-6.455V37.059l0.036-3.602l-1.426,3.459l-4.422,10.306h-5.206l-4.422-10.306l-1.426-3.459
			l0.036,3.602v10.163h-6.455V21.548h7.346l6.027,12.053l1.604,3.566l1.605-3.566l5.812-12.053H151.425z"/>
		<path style="fill:#FF0000;" d="M163.19,21.548v19.577h11.482v6.098h-18.686V21.548H163.19z"/>
		<path d="M196.673,21.548v6.026h-11.518v3.709h10.092v6.026h-10.092v3.887h11.911v6.026h-19.114V21.548H196.673z"/>
		<path d="M223.951,21.548l-9.308,16.189v9.485h-7.203v-9.485l-9.307-16.189h7.952l3.602,6.49l1.605,3.316l1.676-3.316l3.388-6.49
			H223.951z"/>
	</g>
	<g id="_x3C_Ellipse_x3E_">
		<circle style="fill:#00FF00;" cx="34.842" cy="190.149" r="28.11"/>
		<path d="M34.842,220.259c-16.603,0-30.11-13.507-30.11-30.109s13.507-30.109,30.11-30.109s30.109,13.507,30.109,30.109
			S51.445,220.259,34.842,220.259z M34.842,164.04c-14.397,0-26.11,11.713-26.11,26.109s11.713,26.109,26.11,26.109
			s26.109-11.713,26.109-26.109S49.239,164.04,34.842,164.04z"/>
	</g>
	<g id="XMLID_00000016767073061491839270000006523088907319552150_">
		<path d="M50.824,173.239l-2.834,8.352c-3.846-1.164-8.553-1.924-11.944-1.924c-3.29,0-4.707,0.811-4.707,2.228
			c0,1.468,1.164,2.176,6.883,3.391c9.617,2.024,13.564,5.72,13.564,11.389c0,6.984-5.466,11.995-16.146,11.995
			c-5.668,0-10.173-0.557-15.538-2.177l2.834-8.401c3.948,1.215,8.25,1.923,12.704,1.923c3.594,0,5.163-0.81,5.163-2.379
			c0-1.468-1.417-2.176-6.63-3.239c-9.718-1.974-13.463-5.111-13.463-11.793c0-7.035,5.77-11.59,15.083-11.59
			C41.056,171.012,46.218,171.771,50.824,173.239z"/>
	</g>
	<g id="XMLID_00000165915687374001586760000015981726279151625143_">
		<path d="M88.489,178.252l-2.104,5.884c-1.641-0.678-3.53-1.105-5.527-1.105c-4.172,0-7.061,2.746-7.061,6.811
			c0,4.065,2.888,6.812,7.061,6.812c2.175,0,3.815-0.428,5.634-1.213l2.068,5.884c-2.532,1.177-5.135,1.783-8.452,1.783
			c-7.488,0-13.658-5.135-13.658-13.266c0-8.13,6.169-13.265,13.658-13.265C83.212,176.576,86.029,177.146,88.489,178.252z"/>
		<path d="M99.185,177.004v9.414h8.701v-9.414h7.203v25.675h-7.203v-10.163h-8.701v10.163h-7.203v-25.675H99.185z"/>
		<path d="M145.826,189.841c0,8.023-5.991,13.266-13.551,13.266s-13.551-5.242-13.551-13.266s5.991-13.265,13.551-13.265
			S145.826,181.817,145.826,189.841z M138.48,189.841c0-4.101-2.567-6.847-6.205-6.847s-6.205,2.746-6.205,6.847
			c0,4.102,2.567,6.847,6.205,6.847S138.48,193.942,138.48,189.841z"/>
		<path d="M175.635,189.841c0,8.023-5.991,13.266-13.551,13.266s-13.551-5.242-13.551-13.266s5.991-13.265,13.551-13.265
			S175.635,181.817,175.635,189.841z M168.289,189.841c0-4.101-2.567-6.847-6.205-6.847s-6.205,2.746-6.205,6.847
			c0,4.102,2.567,6.847,6.205,6.847S168.289,193.942,168.289,189.841z"/>
		<path style="fill:#FF0000;" d="M186.474,177.004v19.577h11.482v6.098h-18.686v-25.675H186.474z"/>
	</g>
	<path style="fill:#DBDBDB;" d="M159.231,118.738c0.142,0.117,0.284,0.235,0.426,0.352c-0.142,0.074-0.284,0.149-0.426,0.223
		C159.231,119.121,159.231,118.93,159.231,118.738z"/>
	<path style="fill:#FED343;" d="M217.861,118.757c0.155,0.179,0.309,0.358,0.463,0.537
		C218.169,119.115,218.015,118.936,217.861,118.757z"/>
	<path style="fill:#E4E4E4;" d="M190.54,118.875c0.196,0.1,0.392,0.201,0.588,0.301C190.932,119.076,190.736,118.975,190.54,118.875
		z"/>
	<path style="fill:#E4E4E4;" d="M189.949,118.889c0.202,0.091,0.404,0.183,0.607,0.274
		C190.354,119.071,190.152,118.98,189.949,118.889z"/>
	
		<circle id="XMLID_00000170958730161051654210000017009813805490624917_" style="fill:#FFBF00;stroke:#000000;stroke-width:4;stroke-miterlimit:10;" cx="34.842" cy="112.5" r="28.11"/>
	<g id="XMLID_00000005956888858887058990000000830489473995708847_">
		<path d="M32.755,93.971c13.159,0,22.017,6.883,22.017,18.221c0,11.337-8.604,18.221-21.663,18.221H18.735V93.971H32.755z
			 M44.446,112.192c0-5.771-4.1-9.566-12.198-9.566h-3.29v19.132h3.644C40.6,121.758,44.446,117.962,44.446,112.192z"/>
	</g>
	<g id="XMLID_00000035505925361244032770000007593097366103389828_">
		<path d="M90.201,124.883v0.428h-7.774c-0.606-0.642-0.999-1.319-1.569-2.604l-1.426-3.28c-0.749-1.747-1.854-2.532-3.423-2.532
			h-1.391v8.416h-7.203V99.635h10.092c6.989,0,11.019,2.853,11.019,7.702c0,3.388-2.247,5.777-5.278,6.954v0.143
			c1.391,0.57,2.211,1.391,3.174,3.565l1.462,3.316C88.596,122.957,89.167,123.777,90.201,124.883z M77.007,111.189
			c3.031,0,4.244-1.284,4.244-2.817s-1.212-2.817-4.244-2.817h-2.46v5.635H77.007z"/>
		<path d="M99.613,99.635v25.675H92.41V99.635H99.613z"/>
		<path d="M127.498,99.635l-10.127,25.854h-5.349l-10.127-25.854h7.952l3.459,9.878l1.64,4.956l1.534-4.956l3.423-9.878H127.498z"/>
		<path d="M136.981,99.635v25.675h-7.203V99.635H136.981z"/>
		<path d="M165.651,99.635v25.711h-5.955l-8.523-9.521l-2.746-3.388l0.036,3.53v9.343h-6.918V99.564h5.527l9.129,10.662l2.567,3.316
			l-0.036-3.424V99.635H165.651z"/>
		<path d="M192.999,100.776l-1.961,5.884c-1.961-0.605-3.851-0.998-6.24-0.998c-4.778,0-8.166,2.746-8.166,6.989
			c0,4.6,2.888,6.668,6.276,6.668c1.89,0,3.281-0.178,4.386-0.534v-2.532h-4.707v-5.491h11.91v12.338
			c-3.281,1.712-7.488,2.639-11.661,2.639c-7.381,0-13.551-4.422-13.551-13.266c0-8.13,6.704-13.265,14.87-13.265
			C187.543,99.208,190.503,99.742,192.999,100.776z"/>
	</g>
</g>
</svg>
