<svg xmlns="http://www.w3.org/2000/svg" viewBox="0 0 145.35 115.78"><defs><style>.prefix__d,.prefix__e,.prefix__f{stroke:#000;stroke-miterlimit:10}.prefix__d,.prefix__f{fill:none}.prefix__f{stroke-width:2px}</style></defs><g id="prefix__b"><g id="prefix__c"><path class="prefix__e" d="M91.31 59.19V36.38H88.8c-25.75 0-51.5 0-77.26.01-4.14 0-7.34-1.63-9.55-5.14C.9 29.51.49 27.56.49 25.53c0-4.72 0-9.44.02-14.16C.54 5 5.04.5 11.4.5H133.64c6.72 0 11.15 4.37 11.18 11.06.02 4.68.03 9.36.01 14.04-.02 6.22-4.53 10.74-10.75 10.78-3.08.02-6.16-.04-9.24.04-.74.02-1.58.28-2.19.71-9.69 6.79-19.34 13.63-29.01 20.45-.71.5-1.44.99-2.34 1.62zm2.49-4.87c.61-.42.96-.65 1.31-.89 8.85-6.25 17.7-12.49 26.54-18.76.83-.59 1.65-.83 2.66-.82 3.32.05 6.64.06 9.96 0 4.51-.08 7.98-3.47 8.02-7.87.05-5.08.01-10.16 0-15.23 0-.36-.04-.72-.11-1.07-.78-4.12-3.97-6.68-8.41-6.68H11.53c-.44 0-.88.02-1.32.07-4.07.45-7.12 3.77-7.15 7.85-.03 5-.11 10 .05 14.99.04 1.44.56 3.01 1.3 4.27 1.63 2.77 4.3 3.71 7.45 3.7 26.71-.02 53.42-.01 80.13-.01h1.81v20.45zM98.12 115.25h-5.9c.06-7.98-2.9-14.54-9.13-19.48-4.39-3.48-9.47-5.06-15.07-4.94-12.43.27-23.44 11-22.88 24.39h-5.81c.07-10.56 4.05-19.15 12.76-25.02 10.12-6.82 20.9-7.24 31.47-1.12 9.84 5.7 14.37 14.71 14.57 26.16z"/><path class="prefix__e" d="M68.75 82.88c-9.47.02-17.1-7.56-17.14-17.02-.04-9.42 7.58-17.08 17.06-17.13 9.41-.05 17.14 7.64 17.14 17.04 0 9.47-7.6 17.09-17.06 17.11zm12.4-17.19c0-6.8-5.64-12.37-12.49-12.35-6.83.02-12.41 5.62-12.39 12.44.02 6.95 5.61 12.55 12.48 12.51 6.91-.04 12.4-5.63 12.39-12.6zM130.59 115.28h-5.06c-.15-1.49-.21-2.96-.47-4.39-2.42-13.3-16.46-20.49-28.59-14.62-.92.45-1.34.29-1.97-.41-.9-1.01-1.96-1.87-2.98-2.83 6.54-4.63 17.28-5.95 26.23-.9 9.27 5.23 13.51 15.31 12.83 23.15zM11.89 115.26H6.65c0-9.43 3.67-16.86 11.41-22.14 8.19-5.59 19.59-5.66 27.63-.3-1.34 1.17-2.68 2.34-4.14 3.61-13.45-7.36-30.05 3.06-29.66 18.83zM91.54 74.46c.03-6.94 5.51-12.27 12.63-12.28 6.59 0 12.14 5.68 12.09 12.38-.06 6.9-5.64 12.38-12.54 12.32-6.74-.06-12.2-5.63-12.18-12.42zm3.6-.05c-.02 4.88 3.84 8.84 8.65 8.87 4.89.04 8.85-3.9 8.86-8.8 0-4.83-3.93-8.74-8.79-8.73-4.81 0-8.71 3.87-8.73 8.66zM45.87 74.56c-.01 6.83-5.58 12.35-12.4 12.32-6.82-.04-12.31-5.58-12.3-12.43 0-6.86 5.58-12.32 12.54-12.28 6.77.04 12.17 5.55 12.16 12.39zm-3.6-.03c0-4.89-3.83-8.76-8.71-8.78-4.85-.02-8.75 3.85-8.8 8.72-.04 4.81 3.92 8.8 8.73 8.81 4.85 0 8.76-3.9 8.77-8.75z"/><path class="prefix__d" d="M93.8 54.32V33.87h-1.81c-26.71 0-53.42 0-80.13.01-3.14 0-5.82-.93-7.45-3.7-.74-1.26-1.26-2.82-1.3-4.27-.15-4.99-.08-9.99-.05-14.99.03-4.08 3.08-7.4 7.15-7.85.44-.05.88-.07 1.32-.07h122.24c4.44 0 7.63 2.56 8.41 6.68.07.35.11.71.11 1.07 0 5.08.05 10.16 0 15.23-.04 4.4-3.52 7.79-8.02 7.87-3.32.06-6.64.05-9.96 0-1.01-.01-1.83.23-2.66.82-8.83 6.27-17.69 12.51-26.54 18.76-.34.24-.7.47-1.31.89zm19.73-38.45l-.1.34c1.64 1.19 3.31 2.36 4.93 3.58 1.8 1.36 1.59.77.94 2.86-.62 1.96-1.25 3.92-1.87 5.88.61-.09 1-.34 1.38-.61 1.55-1.12 3.12-2.23 4.65-3.39.54-.42.93-.4 1.46 0 1.36 1.05 2.76 2.04 4.16 3.05.53.38 1.08.75 1.89 1.31-.17-.68-.24-1.02-.35-1.35-.58-1.79-1.11-3.59-1.76-5.35-.34-.93-.24-1.5.64-2.08 1.63-1.07 3.17-2.29 4.77-3.43.24-.17.58-.21.87-.32l-.4-.5c-2.27 0-4.54-.03-6.81.02-.81.02-1.24-.22-1.46-1.03-.39-1.42-.87-2.82-1.34-4.23-.26-.8-.56-1.6-.84-2.4-.98 2.13-1.73 4.23-2.34 6.36-.28.97-.71 1.34-1.74 1.31-2.22-.08-4.45-.02-6.67-.02zm-99.1 12.62l.3.19c1.64-1.19 3.26-2.41 4.92-3.56 1.87-1.3 1.15-1.32 2.99-.03 1.69 1.18 3.34 2.41 5.01 3.62l.26-.18c-.56-1.77-1.12-3.53-1.69-5.3q-.76-2.36 1.23-3.78c1.5-1.08 2.98-2.19 4.47-3.28-.49-.27-.87-.3-1.26-.3-1.92 0-3.84-.04-5.75.01-.82.02-1.21-.25-1.45-1.05-.59-1.99-1.26-3.95-1.91-5.92-.08-.23-.22-.44-.47-.92-.7 2.15-1.29 4.04-1.94 5.92-.75 2.18-.12 1.94-2.66 1.96-1.97.01-3.94 0-5.91 0l-.09.31c.29.23.58.47.89.69 1.48 1.08 2.94 2.21 4.47 3.23.85.56 1.03 1.1.68 2.06-.76 2.08-1.39 4.21-2.08 6.32zm25.76-.02l.29.21c1.7-1.23 3.45-2.41 5.09-3.72.95-.76 1.64-.91 2.65-.04 1.39 1.2 2.94 2.2 4.43 3.27.25.18.54.31 1.11.62-.83-2.59-1.53-4.82-2.28-7.04-.21-.63-.13-1.01.45-1.39 1.06-.7 2.07-1.49 3.1-2.25l2.62-1.93c-.5-.28-.88-.31-1.26-.31-1.88 0-3.76-.06-5.63.02-.94.04-1.33-.32-1.58-1.18-.55-1.88-1.18-3.73-1.79-5.58-.1-.31-.26-.59-.53-1.2-.75 2.3-1.49 4.24-1.99 6.24-.35 1.39-1.01 1.83-2.41 1.74-2.04-.13-4.1-.03-6.16-.03.21.51.48.77.79.99 1.39 1.01 2.72 2.12 4.19 2.99 1.21.73 1.34 1.47.85 2.73-.75 1.92-1.29 3.91-1.92 5.88zm51.49.02l.23.19c.34-.22.69-.43 1.02-.67 1.59-1.15 3.19-2.28 4.74-3.47.54-.41.92-.43 1.46-.01 1.2.93 2.45 1.79 3.68 2.68.69.5 1.39.98 2.09 1.47.11-.54.02-.91-.09-1.28-.6-1.86-1.19-3.73-1.83-5.58-.23-.67-.13-1.09.48-1.51 1.61-1.11 3.18-2.28 4.77-3.43.32-.23.61-.51.91-.77-2.41-.24-4.68-.28-6.95-.22-.89.02-1.27-.3-1.5-1.13-.39-1.42-.9-2.81-1.36-4.22-.25-.77-.52-1.53-.78-2.3-.87 1.77-1.46 3.53-2.03 5.3q-.76 2.32-3.24 2.33h-5.44l-.1.32c.29.23.57.47.87.69 1.42 1.04 2.8 2.13 4.28 3.08 1.01.65 1.24 1.27.79 2.43-.78 1.99-1.34 4.05-1.99 6.09zm-29.8-12.61c.14.29.16.38.21.42 1.8 1.33 3.59 2.68 5.43 3.95.69.48.81.92.54 1.69-.67 1.88-1.26 3.79-1.87 5.69-.1.3-.15.62-.3 1.28 1.66-1.2 3.02-2.17 4.37-3.16q2.4-1.76 4.74-.03c1.37 1.01 2.76 2 4.14 3 .13-.49.06-.82-.04-1.14-.5-1.56-1.02-3.11-1.51-4.68-.78-2.5-.95-1.72 1.05-3.22 1.57-1.19 3.18-2.33 5.05-3.71-.76-.05-1.14-.09-1.52-.09-1.96 0-3.92-.03-5.88.01-.71.01-1.08-.22-1.29-.92-.6-1.99-1.26-3.96-1.92-5.93-.09-.27-.26-.51-.52-1.02-.8 2.45-1.54 4.6-2.19 6.77-.25.84-.66 1.13-1.53 1.1-2.27-.06-4.54-.02-6.97-.02zM81.15 65.69c0 6.97-5.49 12.55-12.39 12.6-6.87.04-12.46-5.56-12.48-12.51-.02-6.82 5.56-12.42 12.39-12.44 6.85-.02 12.48 5.55 12.49 12.35zM95.13 74.41c.02-4.78 3.92-8.65 8.73-8.66 4.86 0 8.79 3.91 8.79 8.73 0 4.9-3.97 8.83-8.86 8.8-4.81-.04-8.67-4-8.65-8.87zM42.27 74.54c0 4.85-3.92 8.76-8.77 8.75-4.81 0-8.78-4-8.73-8.81.04-4.87 3.95-8.75 8.8-8.72 4.88.02 8.72 3.9 8.71 8.78z"/><path class="prefix__f" d="M113.53 15.87c2.22 0 4.45-.05 6.67.02 1.03.04 1.46-.33 1.74-1.31.61-2.13 1.36-4.23 2.34-6.36.28.8.58 1.59.84 2.4.46 1.4.95 2.8 1.34 4.23.22.81.65 1.05 1.46 1.03 2.27-.04 4.54-.02 6.81-.02l.4.5c-.29.1-.63.14-.87.32-1.6 1.13-3.13 2.36-4.77 3.43-.88.58-.98 1.15-.64 2.08.65 1.76 1.19 3.56 1.76 5.35.11.33.17.67.35 1.35-.81-.56-1.36-.93-1.89-1.31-1.39-1.01-2.8-2-4.16-3.05-.53-.41-.92-.42-1.46 0-1.52 1.16-3.09 2.27-4.65 3.39-.38.27-.77.52-1.38.61.62-1.96 1.25-3.92 1.87-5.88.66-2.08.86-1.5-.94-2.86-1.62-1.23-3.28-2.39-4.93-3.58l.1-.34zM14.43 28.49c.69-2.11 1.32-4.24 2.08-6.32.35-.96.17-1.5-.68-2.06-1.53-1.01-2.99-2.14-4.47-3.23-.3-.22-.59-.46-.89-.69l.09-.31c1.97 0 3.94.01 5.91 0 2.54-.02 1.91.21 2.66-1.96.65-1.87 1.24-3.76 1.94-5.92.25.48.39.69.47.92.65 1.97 1.32 3.94 1.91 5.92.24.79.63 1.07 1.45 1.05 1.92-.05 3.84-.02 5.75-.01.38 0 .76.03 1.26.3-1.49 1.09-2.97 2.2-4.47 3.28q-1.98 1.43-1.23 3.78c.57 1.76 1.12 3.53 1.69 5.3l-.26.18c-1.67-1.21-3.32-2.44-5.01-3.62-1.85-1.29-1.12-1.27-2.99.03-1.66 1.16-3.28 2.37-4.92 3.56l-.3-.19zM40.2 28.46c.63-1.96 1.17-3.96 1.92-5.88.49-1.25.37-2-.85-2.73-1.47-.88-2.8-1.98-4.19-2.99-.3-.22-.58-.48-.79-.99 2.05 0 4.11-.1 6.16.03 1.41.09 2.06-.35 2.41-1.74.51-2 1.24-3.94 1.99-6.24.27.61.43.89.53 1.2.61 1.86 1.25 3.71 1.79 5.58.25.86.64 1.22 1.58 1.18 1.87-.08 3.75-.02 5.63-.02.38 0 .77.03 1.26.31l-2.62 1.93c-1.03.76-2.04 1.54-3.1 2.25-.58.38-.66.77-.45 1.39.75 2.22 1.45 4.46 2.28 7.04-.56-.31-.86-.43-1.11-.62-1.49-1.07-3.05-2.07-4.43-3.27-1.01-.87-1.69-.72-2.65.04-1.64 1.31-3.39 2.49-5.09 3.72l-.29-.21zM91.68 28.48c.65-2.03 1.21-4.1 1.99-6.09.45-1.16.22-1.79-.79-2.43-1.48-.95-2.86-2.04-4.28-3.08-.3-.22-.58-.46-.87-.69l.1-.32h5.44q2.48 0 3.24-2.33c.58-1.77 1.16-3.53 2.03-5.3.26.77.53 1.53.78 2.3.46 1.4.97 2.79 1.36 4.22.23.83.61 1.15 1.5 1.13 2.27-.06 4.54-.02 6.95.22-.3.26-.59.54-.91.77-1.58 1.15-3.15 2.32-4.77 3.43-.61.42-.72.83-.48 1.51.64 1.85 1.23 3.71 1.83 5.58.12.37.2.74.09 1.28-.7-.49-1.39-.98-2.09-1.47-1.23-.89-2.48-1.75-3.68-2.68-.54-.42-.92-.4-1.46.01-1.55 1.19-3.15 2.32-4.74 3.47-.33.24-.68.45-1.02.67l-.23-.19zM61.88 15.87c2.43 0 4.71-.04 6.97.02.87.02 1.28-.27 1.53-1.1.65-2.17 1.39-4.32 2.19-6.77.27.51.44.75.52 1.02.65 1.97 1.32 3.94 1.92 5.93.21.7.58.94 1.29.92 1.96-.04 3.92-.02 5.88-.01.38 0 .76.04 1.52.09-1.88 1.37-3.48 2.52-5.05 3.71-1.99 1.5-1.82.72-1.05 3.22.49 1.56 1.01 3.12 1.51 4.68.1.32.17.65.04 1.14-1.38-1-2.77-1.99-4.14-3q-2.35-1.73-4.74.03c-1.35.99-2.71 1.95-4.37 3.16.15-.66.2-.98.3-1.28.61-1.9 1.2-3.81 1.87-5.69.27-.77.15-1.21-.54-1.69-1.84-1.27-3.63-2.63-5.43-3.95-.05-.04-.07-.13-.21-.42z"/></g></g></svg>