<svg xmlns="http://www.w3.org/2000/svg" viewBox="0 0 469 469" width="40" height="40" title="Learner plate; a red L on white background"><path d="M234 468.9c-76.64 0-153.27-.03-229.91.1-3.42.01-4.09-.67-4.09-4.09C.11 311.3.11 157.7 0 4.09 0 .67.67 0 4.09 0 157.7.11 311.3.11 464.91 0c3.42 0 4.1.67 4.09 4.09-.11 153.6-.11 307.21 0 460.81 0 3.42-.67 4.1-4.09 4.09-76.97-.13-153.94-.1-230.91-.1zM125.04 229.95c0 44.81.02 89.63-.05 134.44 0 3.05.1 4.66 4.06 4.65 68.3-.14 136.61-.13 204.91-.03 3.31 0 4.1-.92 4.07-4.13-.14-20.99-.22-41.98.04-62.97.05-4.31-1.22-5.06-5.23-5.05-39.82.16-79.63.1-119.45.09-7.39 0-7.39-.03-7.39-7.34 0-64.3-.04-128.61.09-192.91 0-4.26-.67-5.85-5.49-5.79-23.49.3-46.98.24-70.47.03-4.03-.04-5.23.77-5.21 5.06.18 44.65.11 89.29.11 133.94z" fill="#fefefe"/><path d="M125.04 229.95c0-44.65.07-89.29-.11-133.94-.02-4.29 1.18-5.09 5.21-5.06 23.49.2 46.98.26 70.47-.03 4.82-.06 5.5 1.53 5.49 5.79-.13 64.3-.09 128.61-.09 192.91 0 7.3 0 7.33 7.39 7.34 39.82.01 79.63.07 119.45-.09 4.01-.02 5.28.73 5.23 5.05-.26 20.99-.19 41.98-.04 62.97.02 3.21-.76 4.14-4.07 4.13-68.3-.1-136.61-.12-204.91.03-3.96 0-4.06-1.6-4.06-4.65.08-44.81.05-89.63.05-134.44z" fill="#fe0000"/></svg>