<?xml version="1.0" encoding="UTF-8"?><svg xmlns="http://www.w3.org/2000/svg" viewBox="0 0 50 39.93"><g id="a"/><g id="b"><g id="c"><path d="M31.46,20.33v-7.9h-.87c-8.92,0-17.84,0-26.76,0-1.43,0-2.54-.57-3.31-1.78C.14,10.05,0,9.37,0,8.67c0-1.63,0-3.27,0-4.9C.01,1.56,1.57,0,3.78,0c7.45,0,14.9,0,22.36,0,6.66,0,13.32,0,19.99,0,2.33,0,3.86,1.51,3.87,3.83,0,1.62,0,3.24,0,4.86,0,2.15-1.57,3.72-3.72,3.73-1.07,0-2.13-.01-3.2,.01-.26,0-.55,.1-.76,.25-3.36,2.35-6.7,4.72-10.05,7.08-.25,.17-.5,.34-.81,.56Zm.86-1.69c.21-.14,.33-.22,.45-.31,3.07-2.16,6.13-4.33,9.19-6.5,.29-.2,.57-.29,.92-.28,1.15,.02,2.3,.02,3.45,0,1.56-.03,2.76-1.2,2.78-2.73,.02-1.76,0-3.52,0-5.28,0-.12-.01-.25-.04-.37-.27-1.43-1.37-2.31-2.91-2.31-14.11,0-28.23,0-42.34,0-.15,0-.3,0-.46,.02C1.95,1.05,.9,2.2,.89,3.61c-.01,1.73-.04,3.46,.02,5.19,.02,.5,.2,1.04,.45,1.48,.56,.96,1.49,1.28,2.58,1.28,9.25,0,18.5,0,27.76,0,.2,0,.4,0,.63,0v7.08Z"/><path d="M33.82,39.75h-2.04c.02-2.77-1-5.04-3.16-6.75-1.52-1.21-3.28-1.75-5.22-1.71-4.31,.09-8.12,3.81-7.93,8.45h-2.01c.02-3.66,1.4-6.63,4.42-8.67,3.51-2.36,7.24-2.51,10.9-.39,3.41,1.97,4.98,5.09,5.05,9.06Z" style="stroke:#000; stroke-miterlimit:10; stroke-width:.35px;"/><path d="M23.64,28.54c-3.28,0-5.92-2.62-5.94-5.9-.01-3.26,2.63-5.92,5.91-5.93,3.26-.02,5.94,2.65,5.94,5.9,0,3.28-2.63,5.92-5.91,5.93Zm4.3-5.95c0-2.36-1.95-4.28-4.33-4.28-2.37,0-4.3,1.95-4.29,4.31,0,2.41,1.94,4.35,4.32,4.33,2.39-.02,4.3-1.95,4.29-4.36Z" style="stroke:#000; stroke-miterlimit:10; stroke-width:.35px;"/><path d="M45.06,39.76h-1.75c-.05-.52-.07-1.02-.16-1.52-.84-4.61-5.7-7.1-9.9-5.06-.32,.15-.47,.1-.68-.14-.31-.35-.68-.65-1.03-.98,2.26-1.6,5.98-2.06,9.09-.31,3.21,1.81,4.68,5.3,4.45,8.02Z" style="stroke:#000; stroke-miterlimit:10; stroke-width:.35px;"/><path d="M3.95,39.75h-1.82c0-3.26,1.27-5.84,3.95-7.67,2.84-1.94,6.79-1.96,9.57-.1l-1.43,1.25c-4.66-2.55-10.41,1.06-10.27,6.52Z" style="stroke:#000; stroke-miterlimit:10; stroke-width:.35px;"/><path d="M31.53,25.62c0-2.4,1.91-4.25,4.38-4.25,2.28,0,4.21,1.97,4.19,4.29-.02,2.39-1.95,4.29-4.34,4.27-2.33-.02-4.23-1.95-4.22-4.3Zm1.25-.02c0,1.69,1.33,3.06,3,3.07,1.69,.01,3.07-1.35,3.07-3.05,0-1.67-1.36-3.03-3.04-3.03-1.66,0-3.02,1.34-3.02,3Z" style="stroke:#000; stroke-miterlimit:10; stroke-width:.35px;"/><path d="M15.72,25.65c0,2.37-1.93,4.28-4.3,4.27-2.36-.01-4.26-1.93-4.26-4.31,0-2.38,1.93-4.27,4.34-4.25,2.34,.02,4.22,1.92,4.21,4.29Zm-1.25,0c0-1.69-1.33-3.03-3.02-3.04-1.68,0-3.03,1.33-3.05,3.02-.01,1.66,1.36,3.05,3.03,3.05,1.68,0,3.03-1.35,3.04-3.03Z" style="stroke:#000; stroke-miterlimit:10; stroke-width:.35px;"/><path d="M32.27,18.66v-7.08c-.23,0-.43,0-.63,0-9.25,0-18.5,0-27.76,0-1.09,0-2.02-.32-2.58-1.28-.26-.43-.43-.98-.45-1.48-.05-1.73-.03-3.46-.02-5.19,0-1.41,1.07-2.56,2.48-2.72,.15-.02,.3-.02,.46-.02,14.11,0,28.23,0,42.34,0,1.58,0,2.7,.94,2.93,2.44,.01,.08,.02,.17,.02,.25,0,1.76,.02,3.52,0,5.28-.02,1.53-1.22,2.7-2.78,2.73-1.15,.02-2.31,.02-3.46,0-.33,0-.65,.09-.91,.28-3.06,2.17-6.13,4.33-9.19,6.5-.12,.08-.24,.16-.45,.31Z" style="fill:none; stroke:#000; stroke-miterlimit:10; stroke-width:.61px;"/><path d="M39.15,5.33l-.03,.12c.57,.41,1.15,.82,1.71,1.24,.62,.47,.55,.27,.32,.99-.21,.68-.43,1.36-.65,2.04,.21-.03,.35-.12,.48-.21,.54-.39,1.08-.77,1.61-1.18,.19-.14,.32-.14,.51,0,.47,.36,.96,.71,1.44,1.06,.18,.13,.37,.26,.65,.45-.06-.24-.08-.35-.12-.47-.2-.62-.39-1.24-.61-1.85-.12-.32-.08-.52,.22-.72,.57-.37,1.1-.79,1.65-1.19,.08-.06,.2-.07,.3-.11l-.14-.17c-.79,0-1.57-.01-2.36,0-.28,0-.43-.08-.5-.36-.14-.49-.3-.98-.46-1.46-.09-.28-.19-.55-.29-.83-.34,.74-.6,1.46-.81,2.2-.1,.34-.25,.46-.6,.45-.77-.03-1.54,0-2.31,0Z" style="fill:none; stroke:#000; stroke-miterlimit:10; stroke-width:.61px;"/><path d="M4.83,9.69l.1,.07c.57-.41,1.13-.83,1.71-1.23,.65-.45,.4-.46,1.04,0,.58,.41,1.16,.84,1.73,1.25l.09-.06c-.19-.61-.39-1.22-.58-1.83q-.26-.82,.43-1.31c.52-.37,1.03-.76,1.55-1.14-.17-.09-.3-.1-.43-.1-.66,0-1.33-.01-1.99,0-.28,0-.42-.09-.5-.36-.2-.69-.44-1.37-.66-2.05-.03-.08-.08-.15-.16-.32-.24,.75-.45,1.4-.67,2.05-.26,.75-.04,.67-.92,.68-.68,0-1.37,0-2.05,0l-.03,.11c.1,.08,.2,.16,.31,.24,.51,.38,1.02,.77,1.55,1.12,.29,.19,.36,.38,.23,.71-.26,.72-.48,1.46-.72,2.19Z" style="fill:none; stroke:#000; stroke-miterlimit:10; stroke-width:.61px;"/><path d="M13.75,9.69l.1,.07c.59-.43,1.2-.83,1.76-1.29,.33-.26,.57-.32,.92-.01,.48,.41,1.02,.76,1.54,1.13,.09,.06,.19,.11,.38,.21-.29-.9-.53-1.67-.79-2.44-.07-.22-.05-.35,.15-.48,.37-.24,.72-.52,1.08-.78,.3-.22,.61-.45,.91-.67-.17-.1-.3-.11-.44-.11-.65,0-1.3-.02-1.95,0-.33,.01-.46-.11-.55-.41-.19-.65-.41-1.29-.62-1.93-.03-.11-.09-.21-.18-.41-.26,.8-.52,1.47-.69,2.16-.12,.48-.35,.63-.84,.6-.71-.05-1.42-.01-2.13-.01,.07,.18,.17,.27,.27,.34,.48,.35,.94,.73,1.45,1.04,.42,.25,.46,.51,.29,.94-.26,.66-.45,1.36-.67,2.04Z" style="fill:none; stroke:#000; stroke-miterlimit:10; stroke-width:.61px;"/><path d="M31.58,9.69l.08,.07c.12-.08,.24-.15,.35-.23,.55-.4,1.1-.79,1.64-1.2,.19-.14,.32-.15,.51,0,.42,.32,.85,.62,1.28,.93,.24,.17,.48,.34,.72,.51,.04-.19,0-.32-.03-.44-.21-.64-.41-1.29-.63-1.93-.08-.23-.04-.38,.17-.52,.56-.38,1.1-.79,1.65-1.19,.11-.08,.21-.18,.32-.27-.83-.08-1.62-.1-2.41-.08-.31,0-.44-.1-.52-.39-.14-.49-.31-.97-.47-1.46-.09-.27-.18-.53-.27-.8-.3,.61-.5,1.22-.7,1.83q-.26,.8-1.12,.81c-.63,0-1.26,0-1.88,0l-.04,.11c.1,.08,.2,.16,.3,.24,.49,.36,.97,.74,1.48,1.07,.35,.22,.43,.44,.27,.84-.27,.69-.46,1.4-.69,2.11Z" style="fill:none; stroke:#000; stroke-miterlimit:10; stroke-width:.61px;"/><path d="M21.26,5.33c.05,.1,.06,.13,.07,.15,.62,.46,1.24,.93,1.88,1.37,.24,.17,.28,.32,.19,.59-.23,.65-.44,1.31-.65,1.97-.03,.1-.05,.21-.1,.44,.58-.42,1.05-.75,1.51-1.09q.83-.61,1.64-.01c.48,.35,.96,.69,1.44,1.04,.04-.17,.02-.28-.01-.4-.17-.54-.35-1.08-.52-1.62-.27-.87-.33-.6,.36-1.12,.54-.41,1.1-.81,1.75-1.28-.26-.02-.4-.03-.53-.03-.68,0-1.36,0-2.04,0-.25,0-.37-.08-.45-.32-.21-.69-.44-1.37-.66-2.05-.03-.09-.09-.18-.18-.35-.28,.85-.53,1.59-.76,2.35-.09,.29-.23,.39-.53,.38-.79-.02-1.57,0-2.42,0Z" style="fill:none; stroke:#000; stroke-miterlimit:10; stroke-width:.61px;"/><path d="M27.94,22.58c0,2.41-1.9,4.35-4.29,4.36-2.38,.02-4.32-1.93-4.32-4.33,0-2.36,1.92-4.3,4.29-4.31,2.37,0,4.32,1.92,4.33,4.28Z" style="fill:none; stroke:#000; stroke-miterlimit:10; stroke-width:.35px;"/><path d="M32.78,25.6c0-1.66,1.36-3,3.02-3,1.68,0,3.05,1.35,3.04,3.03,0,1.7-1.37,3.06-3.07,3.05-1.67-.01-3-1.39-3-3.07Z" style="fill:none; stroke:#000; stroke-miterlimit:10; stroke-width:.35px;"/><path d="M14.47,25.65c0,1.68-1.36,3.03-3.04,3.03-1.67,0-3.04-1.39-3.03-3.05,.01-1.69,1.37-3.03,3.05-3.02,1.69,0,3.02,1.35,3.02,3.04Z" style="fill:none; stroke:#000; stroke-miterlimit:10; stroke-width:.35px;"/></g></g></svg>