<?xml version="1.0" encoding="UTF-8"?><svg id="Layer_2" xmlns="http://www.w3.org/2000/svg" viewBox="0 0 900 158"><g id="Layer_1-2"><g><path d="M779.91,.07C818.52,.07,857.13,.11,895.74,0c3.1,0,4.27,.19,4.26,3.92-.17,50.06-.17,100.11,0,150.17,.01,3.73-1.16,3.92-4.26,3.92-38.61-.11-77.22-.07-115.83-.07-2.77-2.22-2.25-5.4-2.26-8.32-.1-22.62-.04-45.24-.05-67.86,0-24.28-.05-48.57,.05-72.85,.01-3.07-.65-6.43,2.26-8.82Z" style="fill:#00bcfe;"/><path d="M47.06,157.93c-14.8,0-29.6-.04-44.4,.05-1.94,.01-2.66-.14-2.66-2.45C.09,104.51,.09,53.49,0,2.47,0,.17,.71,.01,2.66,.03c14.8,.09,29.6,.05,44.4,.05,1.32,1.12,2.09,2.51,2.12,4.28,.23,11.87,.38,23.73-.1,35.6-.04,1.02-.52,1.9-.82,2.83-.81,2.31,.17,4.47,.6,6.69,.92,17.45,.77,34.9,.11,52.33-.28,7.48-.52,14.91,.05,22.39,.74,9.62,.34,19.27,.2,28.91-.03,1.93-.62,3.59-2.16,4.82Z" style="fill:#0067f1;"/><path d="M186.03,157.93h-33.99c-1.53-1.23-2.16-2.86-2.16-4.79-.03-10.08-.59-20.16,.34-30.21,.15-1.6,.31-3.22,.38-4.83,.02-.5,.1-1,.24-1.49,.82-1.62,.92-3.13-.57-4.48-1.09-.99-1.3-2.25-1-3.64,.99-7.08,.25-14.19,.5-21.28,.1-2.79-.32-5.63,.8-8.31,7.7-5.84,9.4-14.97,12.91-23.31-1.56-.07-1.25,1.19-1.63,1.83-.42,.7-.64,1.53-1.05,2.24-2.02,3.44-4.33,3.6-6.21,.14-1.8-3.3-3.53-6.7-4.41-10.44-.87-14.82-.35-29.63-.29-44.43,0-1.93,.62-3.59,2.16-4.83h33.99c1.55,1.24,2.14,2.9,2.17,4.83,.19,14.48,.3,28.95-.07,43.43-.03,1.17-.21,2.33-.92,3.3-1.87,2.34-4.34,1.99-6.8,1.4-3.67-.88-6.52,.35-8.64,3.32-1.73,2.42-1.73,4.97,.01,7.38,2.14,2.96,5,4.16,8.66,3.27,2.29-.56,4.6-.89,6.51,1.08,.55,.66,.99,1.4,1.01,2.23,.38,12.88,1.03,25.76-.34,38.61-.13,.55-.34,1.09-.61,1.6-3.65,4.89-3.52,6.88,.83,12.42,.94,10.06,.42,20.14,.36,30.2-.01,1.92-.63,3.56-2.16,4.79Z" style="fill:#0071f2;"/><path d="M47.06,157.93c0-36.6,0-73.2,0-109.8,4.31-2.99,7.53-1.6,8.09,3.57,.44,4.03-.11,8.14,.79,12.18,2.19-5.93-1.52-13.01,4.13-18.12-5.02-1.65-10.63,1.53-14.97-2.63,1.9-1.74,1.99-4,1.98-6.38-.05-12.22-.02-24.45-.02-36.67h31.99c1.93,1.47,2.23,3.59,2.21,5.79-.14,15.23,.72,30.48-.48,45.69-.2,2.52,.41,4.93,.89,7.35,.22,3.26-.2,6.54,.16,9.81-.87,11.46-.33,22.95-.52,34.42-.03,1.82,.06,3.67-.58,5.42-.4,1.28-1.09,2.29-2.37,2.94-1.66,.83-1.41,2.75-.37,3.18,3.98,1.63,3.62,4.29,2.42,7.44-.15,.39,.22,.94,.41,1.41,1.02,10.04,.47,20.08,.36,30.12-.02,1.77-.8,3.16-2.12,4.28h-31.99Z" style="fill:#006af1;"/><path d="M354,.07h28.99c1.35,1.13,2.12,2.55,2.12,4.33,.04,14.8,.81,29.61-.42,44.38-.47,2.89-2.43,4.49-5.11,4.59-3.67,.14-4.45,2.14-4.35,5.21,.16,4.77-.36,9.58,.5,15.3,1.65-2.8,1.18-6.37,4.67-6.46,2.3-.06,3.71,1.22,4.18,3.51,1.08,12.83,1.28,25.64-.09,38.44-3.01,6.74-3.04,13.42,.39,20.05,.72,7.74,.37,15.49,.31,23.24-.02,2.05-.46,3.93-2.19,5.27h-28.99c-1.54-1.24-2.16-2.89-2.17-4.82-.05-9.79-.55-19.59,.3-29.36,.29-.74,.28-1.73,.86-2.24,2.86-2.53,3.16-4.28-1.04-5.68-1.66-.55-2.19-2.42-1.12-4.12,.69-1.1,1.72-2,1.2-3.51-.34-10.18-.95-20.34,.41-30.48,1.08-5.08,3.88-9.65,3.47-15.25-.32-4.36-.42-8.5-3.4-12.01-1.15-3.22-.78-6.56-.8-9.85-.04-11.09-.09-22.18,.03-33.27,.03-2.62-.21-5.38,2.25-7.28Z" style="fill:#0083f5;"/><path d="M152.04,.07c0,16.93,0,33.85,0,50.78-1,1.99-1.37,3.88-.14,6.03,1.3,2.28,1.96,4.88,3.17,7.23,1.96,3.82,1.9,7.34-1.73,10.14-1.43,1.1-1.55,2.39-1.29,3.92,0,8.91,.03,17.83-.02,26.74,0,1.89,.57,4.11-1.97,5.06-.77,1.29-2.12,1.5-3.4,1.77-2.57,.55-3.5,2.27-3.36,4.7,.16,2.69,2,3.5,4.34,3.85,1.45,.22,3-.37,4.36,.52,.02,12.37,.03,24.73,.05,37.1h-26.99c-2.62-2.05-2.2-5.01-2.26-7.78-.28-12.25,.87-24.51,.48-36.72-.38-11.75-.25-23.5-.52-35.24-.09-3.83,.22-7.61,1.2-11.3,1.43-2.64,3.83-1.46,6.68-.91-3.31-4.29-3.98-8.05-.12-12.25-2.77,.18-5.04,.92-6.44-1.3-1.64-15.83-1.47-31.69-1.19-47.56,.03-1.92,.63-3.56,2.17-4.79h26.99Z" style="fill:#006ef2;"/><path d="M354,.07c0,16.93,0,33.86,0,50.78-1.18,2.9-3.65,2.23-5.93,2.15-4.52-.15-7.33,2.29-7.6,6.56-.26,4.1,2.48,6.98,7,7.13,2.54,.08,5.5-.27,5.49,3.29-.02,3.46-2.75,4.55-5.81,4.87-1.29,.13-2.56-.53-4-.02,3.37,2.5,7.64-.81,10.79,1.96,.02,11.01,.05,22.02,.07,33.03-.43,1.17-1.6,.9-2.43,1.32-2.62,1.32-2.46,3.65-.12,4.24,4.66,1.19,3.18,3.95,2.55,6.72,0,11.94,0,23.89,0,35.83h-27.99c-1.53-1.23-2.15-2.87-2.16-4.79-.06-9.92-.56-19.84,.32-29.73,.45-1.77,3.74-2.49,1.44-5.53-.95-1.26,1.66-2.28,3.41-2.42,.95-.08,2.24,.02,2.4-1.23,.18-1.39-1.1-1.9-2.16-2.34-1.49-.61-3.33-.48-4.38-2.07-1.32-2.11-1.07-4.49-1.11-6.79-.28-15.25,0-30.5,.94-45.72,2.1-3.66,3.9-1.88,5.53,.39,1.12,1.56,.74,3.53,1.11,5.3,.93-7.08,.92-7.11-4.88-11.31-.96-.7-1.76-1.51-2.22-2.64-1.07-14.73-.41-29.45-.39-44.18,0-1.92,.62-3.57,2.16-4.8h27.99Z" style="fill:#0080f5;"/><path d="M779.91,.07V157.93h-22c-2.79-2.22-2.24-5.4-2.25-8.32-.09-23.47-.02-46.94-.06-70.42,0-3.65,.23-7.33-.62-10.93,.27-5.42,.24-10.86,.16-16.29,1.06-9.07,.27-18.16,.46-27.24,.13-6.12-.04-12.24,.08-18.37,.04-2.34,.12-4.67,2.24-6.28h22Z" style="fill:#00bafe;"/><path d="M221.02,.07h21c2.62,2.04,2.22,4.99,2.25,7.75,.16,13.87-.14,27.74,.21,41.59,.02,1.71-.74,3.1-1.61,4.55-3.4,5.64-3.28,7.32,.69,12.39,.94,1.19,1.76,2.37,1.84,3.94-.51,12.85,.57,25.72-.64,38.54-.87,2.46-3.11,2.51-5.17,2.96-.97,.21-1.9,.73-2.09,1.81-.23,1.29,.78,1.63,1.76,1.86,1.88,.43,3.04,1.63,2.54,3.48-.59,2.18,1.71,2.07,2.19,3.33,2.42,10.54,1.05,21.2,1.07,31.81,0,1.63-.92,2.8-2.06,3.83h-22c-1.92-1.47-2.21-3.57-2.22-5.77-.04-9.4-.33-18.81,.17-28.19,.53-2.84-2.16-2.35-3.45-3.31-1.1-.82-2.08-1.8-1.74-3.31,.3-1.33,1.42-1.81,2.65-1.81,4.26,.02,5.62-1.36,2.63-5.09-.4-.5-.17-1.29-.19-1.97-.03-14.19-.71-28.37,.6-42.53,.23-2.46,.1-4.95-.19-7.4-.21-1-.36-2.25,.48-2.79,3.46-2.24,2.32-4.38,.08-6.62-1.14-1.81-1-3.86-1.03-5.83-.16-12.14-.11-24.29-.03-36.43,.02-2.49-.06-5.06,2.24-6.82Z" style="fill:#0076f3;"/><path d="M79.05,157.93c0-11.93,0-23.85,0-35.78,3.96-3.73,3.99-3.78-.56-6.53-3.98-2.41-.21-3.95,.56-5.83,0-9.92,.07-19.83-.03-29.75-.04-4.15,.23-8.24,1.14-12.29,2.85-2.22,6.12,1.13,9.12-.75,1.65-1.04,4.65-.27,4.52-3.52-.13-3.38,1.17-7.14-2.22-9.72-1.28-.97-2.69-2.05-5.04-1.27,2.58,.54,4.88,1.23,4.74,3.95-.12,2.32-2.32,2.69-4.08,2.91-2.37,.3-4.58,2.42-7.14,.69-2.04-12.16-.65-24.42-.97-36.63-.2-7.77-.04-15.55-.04-23.32h23c2.62,2.04,2.22,4.99,2.25,7.75,.17,13.87-.14,27.74,.19,41.6,.17,2.26-.88,4.08-2.09,5.87-2.18,3.21-2.16,6.45,.17,9.55,1.23,1.63,2,3.36,1.93,5.43-.36,10.73-.07,21.45-.19,32.17-.02,2.14,.12,4.3-.64,6.36-.31,1.58-1.46,2.48-2.62,3.48-3.5,3-3.5,5.02,.13,7.94,1.06,.86,2.12,1.56,2.46,2.96,1.37,10.31,.61,20.64,.46,30.96-.02,1.61-.94,2.75-2.06,3.77h-23Z" style="fill:#006bf1;"/><path d="M102.05,157.93c0-11.94,0-23.87,0-35.81,.39-1.62,1.9-1.64,3.06-2.05,2.08-.75,3.36-2.17,3.25-4.33-.1-1.9-1.33-3.21-3.24-3.86-1.18-.4-2.66-.47-3.07-2.06,0-11.31,.01-22.62,0-33.92,0-2.51-.03-5,1.17-7.31,1.61-2.04,4.05-.97,6.8-1.78-3.84-1.55-7.84-2.55-7.41-7.28,.37-4.11,3.81-4.96,7.44-6.07-2.44-1.28-5.21,.18-6.83-2-1.19-2.29-1.17-4.77-1.17-7.26,.02-14.71,0-29.41,0-44.12h23c0,15.64-.01,31.29,.02,46.93,0,2.11-.48,4.38,1.3,6.14,.53,2.22-.49,3.89-2.56,3.96-2.3,.08-2.59-2.12-2.84-3.97-.34-2.44,.28-4.97-1.09-7.36-.69,6.21-.73,12.42-.38,18.84,2.24-.51,2.53-3.55,4.82-2.64,1.69,.67,2.63,2,1.92,3.98-1.76,1.99-1.15,4.42-1.16,6.69-.04,28.43-.02,56.86-.02,85.28h-23Z" style="fill:#006cf2;"/><path d="M697.93,.07h22c2.12,1.61,2.21,3.95,2.23,6.29,.1,12.59,.11,25.17,0,37.76-.02,2.36-.41,4.61-1.73,6.61-4.65,7.07-4.66,20.8-.01,27.52,1.59,2.32,1.75,4.96,1.77,7.64,.09,21.58,.07,43.15,0,64.73,0,2.62,.22,5.4-2.25,7.3h-22c-2.13-1.61-2.23-3.97-2.24-6.32-.1-25.28-.15-50.55,.04-75.83,.01-1.8-.06-3.69,1.12-5.26,1.76-2.97,5.08-3.18,7.83-3.71,5.79-1.12,3.85-5.31,3.88-8.59,.04-3.8-2.56-5.78-6.02-5.96-2.05-.1-3.94,.15-5.44-1.57-1.44-1.66-1.36-3.7-1.38-5.66-.18-12.89-.13-25.79-.03-38.68,.02-2.33,.12-4.67,2.23-6.28Z" style="fill:#00b3fd;"/><path d="M680.93,157.93h-20c-1.52-1.22-2.15-2.84-2.16-4.76-.05-9.85-.6-19.71,.33-29.53,.87-1.86-.61-2.5-1.68-3.54-1.95-1.9-1.48-4.09,1.07-4.35,5.18-.54,4.74-2.18,1.6-5.05-.61-.56-.62-1.51-.94-2.28-.72-12.95-1.03-25.88,.18-38.8,4.79-6.83,4.78-13.44-.05-19.25-1.28-15.33-.51-30.67-.45-46.01,0-1.77,.78-3.17,2.12-4.29h20c1.34,1.13,2.11,2.54,2.12,4.31,.07,14.91,.77,29.82-.39,44.7-1.2,2.82-3.99,3.95-6.44,4.07-4.87,.24-5.26,3.06-5.06,6.71,.08,1.46-.13,2.95,.88,5.37,1.26-4.36-.11-9.27,4.91-10.63,2.3-.62,4.29,.01,5.58,2.22,.82,2.43,.68,4.94,.68,7.43,.05,28.28,.06,56.57-.02,84.85,0,3.07,.66,6.44-2.26,8.82Z" style="fill:#00aefc;"/><path d="M219.93,56.99c1.09,1.21,1.09,2.7,1.09,4.2,0,14.85,0,29.7,0,44.55,0,1.49,.03,2.99-.99,4.24-.76,1.26-2.07,1.51-3.35,1.76-3.12,.61-3.75,2.94-3.52,5.52,.23,2.53,2.2,3.42,4.48,3.67,1.1,.12,2.31-.39,3.23,.62,.05,12.13,.1,24.25,.15,36.38h-21c-1.13-1.03-2.04-2.17-2.06-3.79-.1-10.52-1.02-21.06,.55-31.56,1.47-2.68,4.55-1.9,6.71-3.11,1.92-.55,2.42-1.96,2.29-3.78-.14-1.97,.25-3.9,.72-6.68-.4,1.78-.86,2.52-1.83,2.88-2.62-.13-5.32,.09-7.45-1.93-.5-.67-.89-1.41-.91-2.26-.33-12.18-.87-24.36,.29-36.51,.31-1.9,1.27-3.3,3.06-4.2,5.63-2.83,5.62-2.86,5.18-9.89-1.08,6.29-2.92,8.85-6.29,8.38-3.94-.54-4.23-3.6-4.24-6.74,3.56-16.71,.82-33.61,1.72-50.39,.15-2.91-.5-6.06,2.27-8.27h21c0,13.74,.03,27.49-.02,41.23-.01,3,.17,5.95,1.03,8.83-.06,1.31-.83,2.49-1.92,2.61-5.61,.6-4.93,4.66-4.87,8.42,.02,1.14-.05,2.29,.64,3.76,2.09-2.5-.51-7.18,4.05-7.94Z" style="fill:#0074f3;"/><path d="M447.98,.07h20c1.34,1.12,2.11,2.53,2.12,4.31,.09,14.9,.73,29.8-.35,44.67-1.22,2.69-3.72,4.16-6.3,4.2-4.73,.08-5.52,2.63-5.23,6.43,.11,1.47-.18,2.98,.78,5.24,1.38-3.28,.08-6.87,2.66-8.94,2.7-2.17,5.36-2.56,7.59,.75,1.14,15.52,1.71,31.03,.43,46.55-2.09,4.14,.06,9.04-2.74,13.28-1.67,2.53,2.52,4.21,2.8,6.83,1.07,10.07,.46,20.16,.37,30.24-.02,1.78-.79,3.17-2.12,4.3h-19c-1.52-1.23-2.15-2.85-2.16-4.77-.05-9.87-.59-19.76,.34-29.6,.65-1.86,1.85-3.02,3.95-3.13,1.16-.06,2.42-.27,2.6-1.75,.18-1.46-.86-2.03-2.08-2.27-4.28-.85-1.85-5.58-4.36-7.46-1.24-10.4-.22-20.84-.63-31.25,1.54-5.84,3.83-11.47,3.21-17.8-.35-3.56-.56-6.88-3.44-9.41-1.28-5.06-.66-10.22-.71-15.32-.09-9.43-.1-18.87,.03-28.3,.03-2.48-.05-5.03,2.25-6.78Z" style="fill:#008df7;"/><path d="M326,.07c.02,16.72,.04,33.43,.07,50.15,.27,1.4-.64,2.12-1.65,2.71-5.72,3.33-6.3,4.85-4.35,11.65q2.27-8.83,5.94-8.59c0,15.93-.02,31.87,.01,47.8,0,2.11-.49,4.36,1.08,6.22,.16,.3,.35,.74,.17,.9-3.63,3.26-2.72,6.98-1.16,10.77-.03,12.08-.07,24.16-.1,36.24h-19c-1.12-1.02-2.03-2.17-2.06-3.78-.16-8.37-.84-16.75,.43-25.08,.25-1.46,1.3-2.46,2.16-3.55,2.98-4.44,2.79-10.64-.44-13.48-.99-.69-1.41-1.7-1.64-2.83-1.06-3.22-.75-6.55-.72-9.84,.13-13.7-.43-27.41,.32-41.11,.07-1.23-.18-2.27-.9-3.24-.66-1.06-.96-2.19-.64-3.43,.15-2.05,.83-3.82,2.64-4.98,1.11-.82,2.55-.4,4.45-1.23-2.45-.39-4.48-.43-5.7-2.18-1.14-1.6-1.07-3.45-1.1-5.25-.17-10.54-.13-21.08-.03-31.62,.02-2.33,.13-4.65,2.23-6.25h20Z" style="fill:#007ef4;"/><path d="M680.93,157.93c0-33.98,0-67.96,0-101.95-.85-1.92-1.68-3.83-.06-5.77,.02-16.71,.04-33.42,.06-50.13h17c0,14.69,0,29.38,0,44.07,0,2.3-.22,4.64,.99,6.77,.21,2.67,2.29,1.64,3.74,1.89,1.75,.3,3.19,1.14,3.49,2.99,.33,2.09-1.22,2.82-2.9,3.3-.63,.18-1.24,.43-1.87,.63-5.48,1.8-6,3.18-2.92,7.88,.47,.71,.81,1.42,.5,2.28-1.22,2.32-1.04,4.83-1.04,7.32,0,26.91,0,53.82,0,80.74h-17Z" style="fill:#00b1fc;"/><path d="M719.92,157.93c0-22.05-.02-44.09,.01-66.14,0-4.64,.05-9.27-1.01-13.83-.03-1.82-.2-3.62-.13-5.45,.14-3.86,1.93-6.05,5.92-5.41,5.23,.83,8.08-3.54,7.91-7.26-.21-4.75-2.82-6.98-8.28-6.78-2.16,.08-4.4,.46-5.43-2.2,2.11-13.06,.53-26.21,.98-39.31,.13-3.82,.02-7.65,.02-11.47h18c2.63,2.06,2.22,5.03,2.25,7.8,.17,14.28-.15,28.57,.22,42.85-.44,8.87,.08,17.76-.34,26.64,.36,23.92,.13,47.84,.12,71.77,0,3.07,.66,6.43-2.26,8.8h-18Z" style="fill:#00b6fd;"/><path d="M419.98,157.93h-18c-.94-.93-1.95-1.85-1.98-3.29-.21-10.65-1.13-21.31,.56-31.91,.36-1.16,1.17-1.93,2.2-2.5,3.16-.58,4.32-2.57,3.65-5.59-.34-1.55-.1-3.06-.01-4.72-.85,1.03-1.66,1.8-2.97,1.64-1.15-.26-2.09-.81-2.65-1.9-1.24-2.48-1.03-5.15-1.07-7.78-.13-10.41,.19-20.82-.21-31.21,.02-2.61,.41-5.23,.3-7.86-.17-3.86,.73-7.16,4.88-9.06-2.35-1.07-4.66-1.49-4.9-4.18-.17-14.08-.09-28.15-.04-42.22,0-2.62-.22-5.38,2.25-7.28h20c1.54,1.24,2.16,2.89,2.16,4.81,.04,14.6,.61,29.2-.31,43.78-.88,2.74-3.39,3.37-5.67,4.29-3.13,1.25-5.44,3.3-5.63,6.82-.18,3.36,1.95,5.51,4.69,6.99,1.94,1.05,3.72,2.13,4.44,4.38,1.17,12.08,.66,24.16,.3,36.24-.02,.85-.48,1.57-.85,2.3-.64,1.34-3.93,1.14-1.97,4.18,.94,1.45-1.13,2.32-2.7,2.61-1.46,.26-3.37,.5-3.11,2.42,.27,1.95,2.33,1.49,3.69,1.48,2.22,0,3.85,.68,4.75,2.81,.96,9.97,.42,19.94,.37,29.91,0,1.93-.62,3.58-2.16,4.82Z" style="fill:#0088f6;"/><path d="M400.99,69.1c1.11,1.98,1,4.16,1,6.32,0,11.46,0,22.91,0,34.37-7.77,5.62-7.65,6.81,0,12.35,0,11.93,0,23.86,0,35.79h-19c-.01-9.69-.03-19.39-.04-29.08-1.62-2.13-.78-4.57-.86-6.89,.39-1.7,1.62-1.74,3.07-1.71,3.18,.05,6.31-.33,6.08-4.59-.21-3.91-3.3-3.97-6.2-3.99-.67,0-1.32,0-1.92-.33-.25-.25-.36-.51-.33-.8,.04-.29,.09-.44,.16-.44,.03-13.41,.06-26.81,.09-40.22,.72-1.36,1.88-2.15,3.2-2.91,6.21-3.59,6.21-10.28,0-13.87-1.32-.76-2.48-1.55-3.2-2.91-.02-16.7-.03-33.4-.05-50.1h19c0,14.69,0,29.39,0,44.08,0,2.3,.2,4.64-1,6.77-4.07,6.06-4.07,12.11,0,18.17Z" style="fill:#0086f6;"/><path d="M539.96,157.93h-17c-2.3-1.75-2.21-4.31-2.25-6.8-.16-9.46,.11-18.93-.15-28.36-1.12-2-3.39-.94-4.92-1.84-1.17-.68-2.36-1.35-2.29-2.95,.05-1.1,.76-2.25,1.69-2.16,4.95,.45,4.88-2.95,5.06-6.25,1.21-8.96,.35-17.94,.56-26.91,.11-4.48,.01-8.97,.16-13.45-.19-4.35-.26-8.69-5.71-10.24-1.23-.35-2-1.83-1.67-3.31,.33-1.46,1.57-2.29,2.91-2.38,2.36-.15,4.19-.83,4.98-3.26,.76-14.07,.11-28.13,.38-42.18,.05-2.77-.37-5.72,2.26-7.77h14c1.34,1.13,2.11,2.53,2.12,4.31,.08,15.08,.73,30.16-.36,45.22-1.95,4.09-.64,7.94,1.01,11.72,1.26,2.88,2.15,5.8,1.65,9-.3,10.8-.03,21.59-.16,32.38-.02,1.98,.09,3.99-.58,5.9-.32,.91-.57,1.87-1.4,2.5-2.36,1.79-3.34,3.34,.49,4.54,2.15,.67,2.65,2.36,1.67,4.28-.61,1.2-1.3,2.26-.62,3.65,.92,9.87,.41,19.73,.34,29.59-.01,1.91-.64,3.54-2.16,4.76Z" style="fill:#0097f8;"/><path d="M276.01,157.93h-17c-2.12-1.61-2.25-3.95-2.23-6.29,.11-8.93-.57-17.87,.73-26.78,1.08-7.44-.82-14.84-.84-22.29-.02-11.09,.45-22.19-.38-33.28-1.22-9.46-.16-18.99-.76-28.47,.34-11.14,.07-22.29,.22-33.43,.04-2.63-.23-5.41,2.25-7.32h18c2.47,1.9,2.22,4.67,2.25,7.3,.16,11.93-.07,23.86,.05,35.79,.42,1.19,.66,2.39,.2,3.62-.62,1.6-1.22,3.22-2.74,4.23-1.18,.95-2.65,1.31-4.05,1.78q-6.96,2.37-6.43,9.87c.05,.65,.01,1.34,.62,1.8,3.53-11.01,5.02-12.16,10.66-8.21,2.04,4.94,1.02,10.19,1.32,15.24,.74,12.56,.98,25.18-.17,37.76-1.25,4.46-1.73,8.92-.02,13.39,1.19,10.32,.5,20.67,.43,31.01-.01,1.76-.79,3.15-2.12,4.27Z" style="fill:#0079f4;"/><path d="M610.94,.07h17c1.34,1.13,2.11,2.53,2.12,4.31,.06,15.4,.79,30.8-.4,46.17-.03,.32,.04,.7-.1,.96-3.1,5.36-3.24,10.93-1.18,16.66-.33,10.91-.04,21.82-.15,32.73-.03,2.64,.2,5.3-.57,7.87-.14,.51-.28,1.04-.43,1.55-.47,2.06-3.29,1.82-3.79,4.17-.79,3.67,1.66,5.21,3.84,7.08,1.89,6.82,.64,13.78,.95,20.68,.15,3.46,.06,6.93-.06,10.4-.07,2.06-.48,3.93-2.21,5.28h-15c-1.53-1.23-2.15-2.87-2.16-4.79-.06-9.92-.56-19.84,.31-29.74,.64-1.71,1.8-2.7,3.81-2.59-1.6-.51-2.78-1.34-2.49-3.16,.21-1.31,1.21-1.81,2.44-2.1,1.28-.3,3.48,.5,3.44-1.68-.03-1.62-1.91-2.08-3.37-2.4-1.2-.26-2.1-.89-2.91-1.78-1.73-2.52-1.25-5.42-1.32-8.18-.25-10.73,.31-21.48-.37-32.21-.87-5.55-.78-11.13-.73-16.72,1.16-1.78,1.02-3.79,1.04-5.79,.08-13.13-.05-26.27,.07-39.4,.02-2.63-.23-5.41,2.25-7.31Z" style="fill:#00a6fb;"/><path d="M277.4,44.17c-1.83-1.7-1.37-3.95-1.37-6.04-.03-12.69-.02-25.37-.02-38.06h13c1.53,1.23,2.16,2.87,2.16,4.79,.03,14.88,.64,29.76-.33,44.61-4.15,6.76,1.05,11.69,3.53,17.07,.58,1.25,1.94,2.19,2.28,3.72,1.24,12.1,.63,24.22,.37,36.32-.03,1.57-.76,2.87-2.03,3.82-1.51,1.34-3.43,.93-5.19,1.2-2.61,.4-4.31,1.76-4.21,4.55,.09,2.53,1.72,3.77,4.11,4.15,1.76,.28,3.69-.13,5.23,1.18,1.48,1.07,1.98,2.55,2.08,4.3,.51,9.11,.3,18.22,.16,27.33-.03,1.92-.62,3.57-2.16,4.8h-19c-.03-11.97-.06-23.94-.09-35.91,.06-.22,.12-.44,.18-.66,1.02-2.75-.4-5.88,1.31-8.5,0-.33-.06-.67-.23-.99-.42-.42-.77-.88-1.05-1.38-.07-.19-.14-.38-.21-.58,.03-16.21,.05-32.42,.1-48.64,0-1.84-.18-3.63-1.01-5.31-.85-1.91-1.67-3.82-.06-5.76,.59-1.28,1.21-2.53,2.45-3.32,.79-.62,2.52-.58,2.54-1.14,.05-1.45-1.87-.69-2.55-1.58Z" style="fill:#007bf4;"/><path d="M467.97,104.68c0-16.24,0-32.47,0-48.71-.85-1.91-1.67-3.82-.06-5.76,.02-16.71,.04-33.42,.06-50.14h16c1.54,1.23,2.16,2.88,2.16,4.8,.03,14.9,.65,29.81-.34,44.69-1.06,2.94-3.69,3.05-6.16,3.18-4.26,.23-6.2,2.85-6.87,6.58-.61,3.38,2.13,7,5.95,8.13,1.89,.56,3.94,.62,5.61,1.9,1.7,1.49,1.8,3.52,1.82,5.51,.23,25.75,.17,51.5,.04,77.25-.01,2.2-.28,4.33-2.22,5.81h-16c0-11.97,0-23.94,0-35.91,1.57-2.37,4.48-1.72,6.6-2.9,1.99-1.1,2.7-2.08,.38-3.45-2.11-1.25-3.54-2.8-1.85-5.19,2.47-3.5,.29-4.28-2.56-4.8-.94-.17-2.04,.16-2.58-1Z" style="fill:#008ff7;"/><path d="M483.97,157.93c0-27.35,.02-54.71-.03-82.06,0-2.17,.86-4.83-2.18-5.96,.5-1.96,.82-3.49-2.26-3.44-2.08,.04-3.98-1.4-3.75-3.79,.22-2.24,2.29-2.47,4.17-2.65q6.64-.65,4.25-6.63c-.32-.8-.28-1.62-.21-2.44,0-16.96,0-33.92,0-50.87h15c1.55,1.24,2.16,2.9,2.16,4.83,.06,14.47,.55,28.95-.28,43.4-.66,2.41-2.47,3.66-4.52,4.91-3.66,2.23-3.49,4.26,.29,6.43,.57,.33,1.24,.47,1.78,.85,3.18,2.19,3.07,4.64-.62,5.94-2.26,.79-2.44,1.69-1.56,3.5,1.28,3.2,1.13,6.56,1.01,9.86-.35,9.77,1,19.58-.81,29.3-.41,1.5-1.75,1.99-2.93,2.64-1.57,.56-2.24,1.66-2.02,2.94-.02-1.05,.46-2.18,1.85-2.8,4.53-1.18,5.73-.48,6.1,3.91,.2,2.31,.57,4.54,1.5,6.67,.64,10.06,.3,20.13,.23,30.2-.01,2.05-.46,3.94-2.19,5.28h-15Z" style="fill:#0090f7;"/><path d="M200.03,.07c0,15.28,.04,30.56-.02,45.84-.02,4.78-.53,9.53-2.03,14.11-2.07-.83-1.68-3.08-2.62-4.59-2.28,5.25-1.46,8.91,2.74,12.13,.82,.63,1.35,1.45,1.89,2.29,.02,13.39,.04,26.79,.07,40.18-1.97,3.96-1.97,7.91,0,11.87,0,12.01-.01,24.02-.02,36.03h-14c-.05-12.09-.09-24.18-.14-36.26-2.34-2.33-1.1-5.22-1.23-7.89,.96-2.4,2.98-3.01,5.19-2.54,2.04,.43,2.74,2.16,2.68,4.17,.18-3.1-1.37-4.46-4.39-4.38-.83,.02-2.04,.8-2.16-.91,.01-12.21,.03-24.42,.03-36.63,0-1.95,.33-4.01-1.29-5.6,.84-5.24,.84-10.47,0-15.71,1.75-1.77,1.28-4.04,1.28-6.15,.03-15.31,.02-30.62,.02-45.93h14Z" style="fill:#0073f3;"/><path d="M627.94,51.99c0-17.31,0-34.61,0-51.92h18c2.46,1.89,2.22,4.64,2.25,7.25,.11,10.9,.06,21.79,.03,32.69,0,3.65,.25,7.25,1.24,10.78,1.08,5.09,.91,10.2,.44,15.33-1.59,2.69-1.6,5.68-1.63,8.67-.1,9.59,.01,19.19-.07,28.78-.02,1.98,.02,3.98-.6,5.9-1.26,4.41-1.65,8.81,.04,13.22,1.16,10.29,.5,20.6,.42,30.91-.01,1.78-.78,3.2-2.12,4.33h-10c-1.32-1.12-2.11-2.51-2.12-4.28-.08-12.65-.99-25.33,1.16-37.9,1.75-1.97,2.68-.89,3.4,.86,.26-3.56,.78-7.31-3.65-9.11-1.26-2.12-1.06-4.5-1.03-6.78,.14-9.74-.62-19.49,.43-29.2,.4-2.23,1.57-3.88,3.62-4.99,3.85-2.08,4.67-5.49,3.36-9.3-1.26-3.68-4.57-4.54-8.03-4.46-1.81,.04-3.6,.65-5.16-.76Z" style="fill:#00aafb;"/><path d="M596.95,157.93h-13c-1.92-1.47-2.21-3.57-2.22-5.77-.05-9.41-.29-18.82,.14-28.2,.38-2.26-1.66-2.49-2.89-3.45-2.32-1.82-2.13-4.67,.37-4.68,6.31,0,3.44-3.75,3.16-6.54,.3-10.78,.07-21.55,.19-32.32,.02-1.98-.1-3.99,.63-5.88,1.84-2.57,3.07-4.93,.49-8.07-1.61-1.96-1.12-4.69,.22-7.02,.66-1.15,2.4-2.06,.77-3.79-1.34-1.41-2.51-2.52-4.57-1.1-.95,.66-1.87,.03-2.47-.92-1.05-2.05-.8-3.97,.52-5.8,3.36-1.96,4.47-4.89,4.42-8.73-.12-9.6-.1-19.2,0-28.8,.03-2.49-.05-5.03,2.24-6.77h12c1.13,1.03,2.04,2.18,2.06,3.81,.09,12.21,1.05,24.44-.57,36.61-4.87,9.5-5.09,19.03-.16,28.6,1.14,2.7,.94,5.56,.95,8.38,.05,10.79-.05,21.59,.33,32.37-2.23,4.03-2.41,8.07-.02,12.12-.28,10.72-.19,21.44-.51,32.16-.05,1.62-.94,2.77-2.07,3.8Z" style="fill:#00a2fa;"/><path d="M421.94,50.18c.01-16.7,.03-33.4,.04-50.1h25.99c0,16.93,0,33.86,0,50.78-.46,4.16-3.25,2.6-5.56,2.28-4.73-.66-8.1,2.29-8,6.99,.08,3.81,2.56,6.35,6.57,6.58,2.56,.15,5.69-.69,5.99,3.29,.21,2.82-2.78,4.79-6.87,4.82-.97,0-1.94-.51-3.31,.1,1.08,1.62,3.4,2.16,3.73,4.24,1.14,10.03,1.32,20.04-.13,30.05-2.74,2.31-5.74,4.27-8.7,6.29-1.73-.51-2.14-1.86-2.19-3.44-.03-.89-.03-1.79-.04-2.68-1.5-13.16-.53-26.36-.7-39.54-.01-1.14,.37-2.3-.34-3.36-.45-.69-.9-1.47-.81-2.28,.59-4.91-.16-9.17-5-11.8-.7-.38-.92-1.33-.68-2.21Z" style="fill:#008bf6;"/><path d="M737.92,157.93c.03-27.04,.07-54.09,.1-81.13,2.34-.93,3.69-2.51,3.86-5.17,.23-3.45,2.34-5.17,5.66-4.51,2.82,.56,5.45-1.68,8.2-.17,2.53,2.11,2.17,5.03,2.17,7.84,0,27.71,0,55.43,0,83.14h-20Z" style="fill:#00b8fd;"/><path d="M257.93,68.81c.83,1.67,1.06,3.45,1.09,5.3,.24,14.22,.19,28.43,.72,42.66,.51,13.67-1.07,27.42-.73,41.15h-16c0-10.11,.01-20.22-.01-30.33,0-1.96,.37-4.02-1.11-5.7,.25-2.79,1.28-5.86-3.21-6.45-1.1-.14-1.59-1.59-1.25-2.85,.29-1.09,1.15-1.5,2.21-1.58,1.1-.08,2.32,.4,3.23-.64,.05-11.25,.13-22.5,.13-33.75,0-2.51,.2-4.95,1.02-7.33,5.46-4,9.17-4.13,13.92-.48Z" style="fill:#0078f3;"/><path d="M539.96,109.78c0-11.73-.01-23.45,.01-35.18,0-1.95-.36-4.01,1.16-5.66,2.69-2.15,5.24-4.34,6.1-7.98,.37-1.58,1.51-3.15,3.42-3.05,1.61,.09,2.66,1.5,3.01,2.93,.85,3.44,3.24,6,4.8,9.03,1.48,5.71,.73,11.53,.74,17.29,.01,7.43,.56,14.89-.44,22.29-.47,1.1-1.15,1.94-2.43,2.23-.49,.11-1.58-.26-1.38,.18,2.07,4.74-1.58,4.31-4.22,4.82-1.12,.22-1.89,.95-1.65,2.06,.3,1.43,1.68,1.57,2.8,1.43,3.01-.39,5.7-.33,6.76,3.26,.73,9.24,.72,18.48,.57,27.72-.04,2.48,.04,5.03-2.25,6.77h-17c0-11.93,0-23.85,0-35.78,.31-1.17,1.6-1.05,2.28-1.7,1.7-1.62,1.84-3.62-.51-4.21-4.9-1.23-3.49-3.69-1.77-6.46Z" style="fill:#009bf9;"/><path d="M556.96,157.93c0-11.95,0-23.9,0-35.86-.88-3.58-.98-7.18-.14-10.79,.05-14.03,.09-28.07,.14-42.1,.45-2.63,1.88-4.89,2.96-7.24,2.12-4.61,3.31-8.79-1.79-12.24-.93-14.94-.39-29.88-.33-44.81,0-1.93,.62-3.58,2.16-4.81h6c2.45,1.88,2.17,4.62,2.25,7.24,.36,11.35-.72,22.73,.88,34.04,.7,2.1,.51,4.29,.55,6.45-.35,1.6-.25,3.18,.19,4.76,.58,5.59,.74,11.16-.33,16.71-2.24,9.34-.89,18.84-1.27,28.26-.15,3.79,.49,7.64-.75,11.35-.35,1.17-1.01,2.08-2.25,2.45-2.55,.76-3.99,2.36-3.73,5.12,.24,2.55,1.91,3.72,4.27,4.13,.86,.15,1.54,.6,2.05,1.3,.64,1.18,.64,2.39,.21,3.62-.32,.56-.72,1.04-1.35,1.34,2.23-.91,4.48-2.02,6.43,.51,2.13,9.2,1.04,18.48,.72,27.74-.04,1.25-1.09,2-1.88,2.85h-15Z" style="fill:#009df9;"/><path d="M645.85,109.92c.03-11.56,.12-23.12,.05-34.68-.02-3.39,.36-6.58,2.17-9.49,3.53,.37,6.88,2,10.61,1.28,1.08-.21,2.17,.74,2.26,2.16,0,13.54,0,27.07,0,40.61-.27,1.32-1.4,1.84-2.43,2.27-2.34,.97-3.08,2.75-2.96,5.1,.11,2.22,1.69,3.05,3.47,3.67,.78,.27,1.61,.4,1.92,1.32,0,11.93,0,23.86,0,35.79h-15c-.03-11.97-.06-23.94-.09-35.91,.06-.22,.12-.44,.18-.66,1.02-2.75-.4-5.88,1.3-8.5,0-.33-.06-.67-.22-.99-.42-.42-.77-.88-1.05-1.38-.07-.19-.14-.38-.21-.58Z" style="fill:#00abfb;"/><path d="M596.95,157.93c.27-12.27-.76-24.58,1-36.81-1.43-1.54,3.47,.69,.98-1.69-2.08-1.99-2.29-4.8-.23-6.58,2.5-2.15-.91-1.26-.74-2.03-1.86-13.85-.66-27.76-1-41.65-.19-2.97-.35-5.93-.11-8.9,.24-2.96,1.45-5.27,4.62-5.47,3.42-.22,5.01,2.06,5.5,5.17,.5,3.19-.1,6.74,3.03,9.05,1.32,1.76,.94,3.82,.94,5.79,.03,9.65,.02,19.29,0,28.94,0,2.17,0,4.33,1.04,6.33-2.4,3.81-3.12,7.77-1.03,11.97,0,11.96,0,23.92,0,35.88h-14Z" style="fill:#00a4fa;"/><path d="M498.97,50.08c0-16.67,0-33.33,0-50h12c1.53,1.23,2.16,2.87,2.16,4.8,.04,14.73,.59,29.46-.29,44.17-.17,.63-.12,1.36-.39,1.93-2.11,4.45-2.47,8.15,3.42,9.93,1.24,.38,1.96,1.84,1.69,3.31-.28,1.52-1.54,2.24-2.89,2.34-2.8,.19-3.9,1.37-2.91,4.15,1.01,12.62,.39,25.24,.35,37.85,0,1.33-.2,2.64,.25,3.93,.22,2.08,.43,4.16-.04,6.24-.47,1.54-1.43,2.69-3.13,2.33-1.21-.26-1.52-1.55-1.68-2.71-.16-1.12-.41-2.22-.77-3.29-.2-3.29-4.21-3.16-5.2-5.75-1.75-7.89-.42-15.9-.85-23.84-.25-4.62,.73-9.33-1.12-13.81-.74-2.01,.28-3.34,1.63-4.72,3.2-3.29,2.92-4.59-1.21-6.89-4.32-2.41-4.46-2.91-.96-6.81,1.16-1.29-.3-2.1-.06-3.13Z" style="fill:#0093f8;"/><path d="M295.01,157.93c0-10.1,0-20.2,0-30.29,0-2.15,.2-4.39-2.08-5.71-.33-.64-.31-1.33,.18-1.8,2.95-2.79,2.95-5.52,0-8.31-.49-.46-.51-1.16-.18-1.8,2.48-1.46,2.07-3.91,2.08-6.18,.02-11.55,0-23.1,0-34.65,2.36-3.59,4.18-7.44,5.74-11.44,.69-1.78,1.44-3.85,4.02-3.8,2.56,1.37,2.24,3.81,2.24,6.1,0,16.68-.02,33.36-.03,50.04-.69,1.14-1.82,1.4-3.02,1.41-2.94,.01-3.75,2-3.61,4.32,.15,2.65,1.75,4.24,4.55,4.3,1.59,.03,3.34-.87,4.65,.81,.74,1.51,.1,2.79-.69,4.04,.12,1.46-3.71,.57-1.84,3.08,0,9.96,0,19.93,0,29.89h-12Z" style="fill:#007df4;"/><path d="M738.92,50.94c-1.2-2.13-1-4.47-1-6.77,0-14.7,0-29.39,0-44.09h20c0,15.6,0,31.2,0,46.8,0,2.29,.41,4.76-2.13,6.2-4.46,.32-8.92,.07-13.38,.07-1.45,0-2.89-.58-3.48-2.2Z" style="fill:#00b8fd;"/><path d="M430.84,111.67c.11,1.22,.3,2.41,1.23,3.32,2.34,1.23,2.52,3.46,2.64,5.71,1.06,10.62,.46,21.27,.47,31.9,0,2.07-.44,3.97-2.19,5.32h-13c0-11.93,0-23.86,0-35.78-1.25-3.92,.32-8.15-1.29-12.03,1.73-1.75,1.27-3.99,1.28-6.09,.03-11.36,.02-22.71,.02-34.07,2.06-3.52,5.34-4.76,9.2-4.94,1.71,1.23,1.8,3.04,1.8,4.91-.05,13.45-.09,26.9-.14,40.34-4.43,.19-5.01,2.95-4.34,5.96,.17-2.22-.87-6.04,4.34-4.57Z" style="fill:#008af6;"/><path d="M571.95,157.93c0-8.47,.01-16.95-.01-25.42,0-1.96,.35-4.04-1.25-5.66,.52-5.83,.95-11.66,.34-17.51-.51-13.16-.83-26.31,.17-39.45,.64-5.85,.78-11.71,.07-17.57-.09-1.07-.52-2.09-.61-3.17,.37-2.61,.74-5.23,.48-7.89-.96-12.12-.39-24.24-.35-36.36,0-1.93,.63-3.58,2.17-4.81h5c1.75,1.35,2.17,3.25,2.2,5.31,.17,11.62,.14,23.25,.02,34.87-.02,1.7-.49,3.27-1.21,4.78,0,1.88,0,3.77,0,5.65-.52,2.19,.79,3.94,1.38,5.87-.04,3.29,1.43,6.39,1.15,9.71-.07,.59-.26,1.14-.55,1.65-1.13,1.46-.72,3.15-.73,4.79-.07,12.09,.25,24.19-.17,36.27,.05,1.22-.21,2.47-1.34,2.98-3.16,1.44-2.32,4.25-1.91,6.42,.41,2.19,2.84,2.43,4.85,2.58,.83,.06,1.65,.09,2.24,.79,.02,12.06,.04,24.12,.07,36.19h-12Z" style="fill:#009ffa;"/><path d="M432.98,157.93c.05-12.76,.1-25.52,.15-38.29,1.87-.89,2.99,.92,4.42,1.24-1.41-.65-2.97-1.36-2.8-3.36,.11-1.36,1.26-1.7,2.45-2,5.17-1.3,5.16-1.33,1.79-5.74,0-10.55,0-21.1,0-31.65,2.57-3.11,5.62-3.1,8.93-1.35,1.95,4.46,.91,9.16,1.03,13.76,.17,6.46,.04,12.92,.04,19.38-.19,2.19-1.97,4.88,1.82,5.85,1.34,.34,2.51,1.05,2.51,2.57,0,1.77-1.25,2.49-2.88,2.66-.7,.07-1.18,.45-1.45,1.1,0,11.94,0,23.88,0,35.82h-16Z" style="fill:#008bf6;"/><path d="M289.01,50.86c0-16.93,0-33.85,0-50.78h17c0,12.36,0,24.72,0,37.08,0,2.48-.07,4.96,1.18,7.23,.66,.77,.67,1.54,0,2.31-.7,1.44-1.4,2.88-2.09,4.32-2.93,2.05-4.71,4.95-6.08,8.18-.66,1.55-1.64,3.03-3.53,3.02-1.89,0-2.89-1.48-3.48-3.06-1.03-2.75-2.66-5.29-3-8.29Z" style="fill:#007cf4;"/><path d="M635.9,69.86c.01,10.79,.01,21.59,.06,32.38,0,1.96-.4,4.02,1.06,5.73,1.8,2.33,2.02,4.66,0,6.99-1.46,1.7-1.06,3.76-1.06,5.71-.03,12.42-.01,24.83-.01,37.25h-10c0-10.39,.01-20.78-.01-31.16,0-1.96,.32-3.98-.78-5.8-2.8-3.17-2.62-6.16,.54-8.95,3.69-2.22,5.53-.71,6.19,2.6,.2-3.63-3.32-3.33-5.78-4.31-.05-12.58-.14-25.16-.11-37.74,0-1.79,.59-3.57,.91-5.36,3.74-1.61,6.52,.02,9,2.66Z" style="fill:#00a9fb;"/><path d="M648.05,51.07c-2.3-1.99-2.11-4.69-2.11-7.34,0-14.55,0-29.1,0-43.65h15c0,16.93,0,33.85,0,50.78,1.56,3.14,1.45,6.48,.91,9.78-.48,2.96-2.33,4.88-5.46,4.77-3.01-.1-4.41-2.14-4.52-4.97-.13-3.62-.82-6.95-3.82-9.36Z" style="fill:#00abfb;"/><path d="M258.02,.07c0,11.52,0,23.05,0,34.57,0,2.14,.13,4.3-1,6.26-1.46,2.53-2.71,5.02-3.12,8.09-.64,4.76-5.32,5.49-10.87,1.99-1.22-3.51-1-7.16-1-10.79,0-13.37,0-26.75,0-40.12h16Z" style="fill:#0077f3;"/><path d="M596.95,40.87c0-13.6,0-27.19,0-40.79h14c0,15.11,0,30.23,0,45.34,0,2.67,.1,5.35-1.71,7.6-2.78,.79-5.54-.24-8.33-.12-2.54,.11-3.7-1.76-3.99-4.16-.32-2.63-.09-5.25,.02-7.88Z" style="fill:#00a4fa;"/><path d="M511.03,51.23c-.02-17.05-.05-34.1-.07-51.15h13c0,15.45,.03,30.9-.03,46.35,0,2.02,.82,4.48-1.95,5.61-3.78,1.56-7.42,1.18-10.95-.8Z" style="fill:#0095f8;"/><path d="M537.96,50.86c0-16.93,0-33.86,0-50.78h11c1.35,1.13,2.12,2.55,2.12,4.33,.05,15.13,.78,30.27-.41,45.39-.58,2.95-2.32,5.48-3.06,8.4-.37,1.44-1.35,2.86-3.03,2.95-1.92,.11-3.01-1.36-3.62-2.94-.95-2.47-2.51-4.69-3-7.34Z" style="fill:#0099f9;"/><path d="M548.96,50.86c0-16.93,0-33.86,0-50.78h11c.02,17.04,.05,34.08,.07,51.13,1.6,1.48,1.22,3.35,.85,5.12-.43,2.03-1.36,3.91-3.66,4.18-2.18,.25-3.53-1.44-3.88-3.19-.58-2.87-3.51-3.92-4.37-6.45Z" style="fill:#009cf9;"/><path d="M508.19,113.97c.97,1.44,.51,3.15,.87,4.68,.51,2.16,1.34,1.07,2.04,.02,3.49,1.6,7.01,2.97,10.89,1.29,1.33,1.74,.95,3.79,.96,5.74,.03,10.74,.01,21.48,.01,32.22h-13c-2.11-1.6-2.19-3.92-2.23-6.26-.11-6.44-.09-12.87-.03-19.31,.03-3.49-.44-6.9-1.18-10.29,.35-2.74-1.16-5.87,1.66-8.1Z" style="fill:#0095f8;"/><path d="M507.95,121.95c2.04,1.88,2.02,4.37,2.02,6.86-.01,9.7,0,19.41,0,29.11h-11c0-11.93,0-23.86,0-35.8,.21-3.34-.67-6.82,1.27-9.94,4.6-1.97,6.32-1.02,6.72,3.68,.17,2.05-.52,4.26,1,6.09Z" style="fill:#0093f8;"/><path d="M578.95,45.04c-1.37-1.73-.99-3.78-.99-5.74-.03-13.07-.01-26.15-.01-39.22h7c0,12.92-.17,25.84,.09,38.75,.09,4.65-1.16,6.96-6.09,6.21Z" style="fill:#00a0fa;"/><path d="M572.95,.07c0,14.29,0,28.58,0,42.87-1.59,1.75-3.27,1.32-4.97,.19-1.66-3.36-2.1-6.92-2.07-10.65,.1-10.8,.04-21.61,.04-32.41h7Z" style="fill:#009ef9;"/><path d="M837.64,111.88c0-5.42,2.09-9.69,7.03-12.22,1.92-.98,3.88-1.44,6.17-.52,3.59,1.45,7.33,1.68,11.07,.22,2.75-1.08,5.53-1.07,8.18,.34,2.59,1.38,5.05,2.4,1.48,5.9-3.88,3.82-3.34,9.65,1.03,13.18,2.48,2.01,2.23,3.36,.88,5.68-4.22,7.2-5.8,7.98-14.2,6.38-2.18-.41-4.31-.2-6.32,.76-3.62,1.72-6.44,.45-8.77-2.4-4.13-5.03-6.54-10.72-6.53-17.32Z" style="fill:#fefefe;"/><path d="M814.92,121.96c-2.88,1.7-5.93,3.16-4.92,7.56,.38,1.64-.95,2.84-2.74,2.74-1.51-.08-2.12-1.16-2.5-2.63-.5-1.95,1.6-5.6-1.92-5.52-3.37,.07-1.23,3.69-1.79,5.65-.41,1.47-1.12,2.5-2.58,2.58-1.46,.08-2.97-.85-2.66-2.3,.96-4.46-1.87-6.3-5-8.07-1.41-6.32-2.9-12.65,.2-18.93h-.03c.94-1.04,2.14-1.49,3.52-1.51,5.6-.1,11.2-.11,16.8,0,1.38,.03,2.58,.48,3.5,1.55h-.03c3.09,4.66,1.43,9.75,1.19,14.66-.07,1.35-.32,2.9-1.05,4.21Z" style="fill:#fdfefe;"/><path d="M799.95,91.13l5.9-.02c1.35,.66,3.27,.03,4.13,1.82,3.04,2.24,5.24,4.93,4.9,9.01-7.99,.91-15.98,.84-23.97,.05-.52-4.18,1.69-6.89,4.9-9.07,.9-1.72,2.77-1.19,4.15-1.79Z" style="fill:#fafdfe;"/><path d="M788.78,118.85c-3.28,1.35-5.15-.25-4.57-3.26,.83-4.32-3.24-9.86,2.92-12.86,.41-.2,1.35,.7,2.05,1.08,1.81,5.06,2.34,10.09-.39,15.04Z" style="fill:#eefafe;"/><path d="M817.04,103.09c8.28-.36,3.81,5.94,4.38,9.16,.47,2.66,2.11,7.84-4.4,6.6-2.6-5.26-2.6-10.51,.02-15.76Z" style="fill:#eefafe;"/><path d="M857.71,98.85c-1.7,.12-1.99-.85-1.77-1.89,.27-1.26,.63-2.58,1.28-3.67,1.57-2.62,3.79-4.86,6.95-4.8,1.72,.03,.99,2.14,.66,3.26-1.1,3.74-3.54,6.2-7.13,7.1Z" style="fill:#def6fe;"/><path d="M790.9,101.99c7.99-.02,15.98-.03,23.97-.05-.03,.39-.05,.77-.08,1.16-7.94,0-15.88-.02-23.82-.02-.03-.36-.06-.72-.08-1.08Z" style="fill:#43cefe;"/><path d="M817.04,103.09c-1.47,5.25-1.45,10.51-.02,15.76-.7,1.04-1.4,2.08-2.11,3.11-.05-6.29-.1-12.58-.15-18.87,.76,0,1.51,0,2.27-.01Z" style="fill:#4ed1fe;"/><path d="M788.78,118.85c1.42-4.98,.76-10.01,.39-15.04,.62-.25,1.23-.51,1.85-.76-.07,6.31-.13,12.62-.2,18.93-.68-1.04-1.36-2.09-2.04-3.13Z" style="fill:#48cffe;"/><path d="M799.95,91.13c-1.38,.6-2.77,1.19-4.15,1.79,.52-1.37-.51-2.49-.74-4.34,1.84,.91,2.74,3.25,4.89,2.55Z" style="fill:#a5e7fe;"/><path d="M809.98,92.92c-1.38-.61-2.75-1.21-4.13-1.82,2.11,.36,2.98-1.61,4.75-2.73-.24,1.77-.43,3.15-.62,4.54Z" style="fill:#89e0fe;"/><path d="M45.1,43.12c6.12-.94,12.27-.17,18.4-.43,1.91-.08,2.63,.66,2.61,2.6-.02,1.87-.62,2.96-2.57,2.6-4.66-.84-5.09,1.72-4.87,5.41,.26,4.14-.01,8.3,.08,12.45,.05,2.17-.39,3.34-2.98,3.34-2.44,0-3.16-.87-3.08-3.18,.13-4.15-.26-8.33,.11-12.45,.41-4.61-1.03-6.55-5.74-5.34-3.14-.69-1.39-3.3-1.96-5Z" style="fill:#fafbfe;"/><path d="M152.04,78.17c-1.47-.61-3.96,.72-4.21-2.2-.25-2.93,1.76-2.62,3.78-3.03,3.05-.62,3.62-2.97,2.46-5.69-2.19-5.15-4.44-10.28-6.69-15.48,1.45-1.36,3.21-.35,4.66-.9,3.71,2.54,3.02,7.42,5.54,10.45,3.96-2.5,.28-11.83,9.93-9.96-3.22,8.1-6.27,16.02-9.54,23.86-1.02,2.45-3.56,2.74-5.92,2.96Z" style="fill:#fbfcfe;"/><path d="M184.73,52.16c4.88,5.89,4.88,9.77,0,15.71-6.45,2.58-11.51,1.93-14.52-1.87-2.76-3.49-2.76-8.52,0-11.98,3.04-3.81,8.06-4.45,14.52-1.87Z" style="fill:#fbfcfe;"/><path d="M151.99,120.83c-3.81,1.67-7.45,2.27-9.9-2.12-2.12-3.79,.69-10.14,7.96-8.73,1.73,2.1,5.69,3.57,1.99,7.17-.41,.22-.83,.41-1.28,.53,.41,.14,.93,0,1.21,.47,.67,.89,.78,1.78,.02,2.67Z" style="fill:#f3f6fd;"/><path d="M171.2,113.99c-.84-1.33-1.83-2.52-3.58-1.6-1.52,.8-1.43,2.37-1.69,3.87-.33,1.89,1.45,5.37-1.31,5.35-2.59-.02-1.06-3.53-1.29-5.46-.33-2.79-.52-5.31-4.34-3.28-1.84-.04-2.95-.62-1.97-2.71,3.74-.71,7.49,1.17,11.29-.17,2.24-.79,3.51,1.15,4.85,2.55,.51,3.09,.78,6.17-.12,9.24-.33,0-.66,0-.99,0-1.26-2.49,.14-5.27-.84-7.79Z" style="fill:#e2ebfc;"/><path d="M185.99,110.1c7.16-.56,10.15,3.39,7.94,10.45-.21,.67-.37,1.26-1.16,1.32-1.02,.07-1.52-.5-1.55-1.46-.05-1.49-.07-2.98-.06-4.47,.03-3.86-1.62-4.79-4.94-2.88-2.41-.1-1.97-1.4-1.19-2.84,.33,0,.65-.04,.97-.12Z" style="fill:#e4ecfc;"/><path d="M177.02,115.61c1.1-1.7-1.46-5.14,1.71-5.2,2.02-.04,1.1,3.37,.98,5.13-.14,2.1,1.42,5.97-1.14,5.96-2.87-.01-.46-3.88-1.55-5.89Z" style="fill:#fefefe;"/><path d="M185.03,110.22c.02,1.11,.29,2.11,1.19,2.84-.72,2.84-.47,5.73-.33,8.6-.91,.09-2.42,.77-2.55-.37-.42-3.67-.9-7.41,.3-11.05,.05-.14,.9-.02,1.38-.02Z" style="fill:#e8effd;"/><path d="M157.02,110.15c.14,1.28,1.23,1.87,1.97,2.71-1.52,2.27-.69,4.85-.98,7.28-.07,.58-.36,1.38-.79,1.6-.62,.31-1.44-.21-1.36-.93,.39-3.55-1.62-7.38,1.16-10.66Z" style="fill:#f8fafe;"/><path d="M151.97,118.15c-2.59,.88-5.38,3.76-7.71-1.01h7.78c-.02,.34-.05,.67-.07,1.01Z" style="fill:#006ef2;"/><path d="M178.53,104c.92,.07,1.56,.61,1.56,1.48,0,.87-.65,1.47-1.56,1.47-.91,0-1.56-.6-1.56-1.47,0-.86,.64-1.4,1.56-1.48Z" style="fill:#e1e9fc;"/><path d="M173.03,121.77c.04-3.08,.08-6.16,.12-9.24,1,3.09,1.47,6.18-.12,9.24Z" style="fill:#dfe8fc;"/><path d="M171.2,113.99c1.45,2.47,.6,5.19,.84,7.79-1.81-2.43-.5-5.2-.84-7.79Z" style="fill:#dfe8fc;"/><path d="M80.06,60.03c3.13-2.53,7.12-2.24,11.1-3.16-1.65-2.88-3.93-2.99-6.02-1.67-2.02,1.27-3.26,.56-4.01-1.03-.98-2.1,1.23-2.35,2.37-2.83,7.34-3.13,12.57,.23,12.87,8.18,.04,1,0,2,.01,3,0,3.95,1.15,7.97-6.03,6.16-2.88-.73-6.87,1.41-10.2-.93-1.59-2.55-1.36-5.13-.1-7.71Z" style="fill:#fafbfe;"/><path d="M68.85,51.14c1.6,.64,3.81,.4,6.12-.62,1.32-.58,2.72,.02,2.7,1.84-.01,1.33,.72,3.39-1.7,3.31-5.25-.19-5.31,3.28-5.24,6.97,.03,1.49,0,2.98-.03,4.46-.06,2.34-1.84,1.8-3.24,1.92-1.58,.14-2.46-.33-2.43-2.14,.07-4.46,.14-8.93-.03-13.39-.09-2.51,1.25-2.66,3.85-2.35Z" style="fill:#f7f9fe;"/><path d="M62.65,116.99c2.4,2.95,4.25,3.79,6.74,1.76,.82-.67,1.52-.48,2.01,.39,.46,.8-.26,1.26-.72,1.59-2.37,1.71-4.98,1.86-7.43,.4-2.34-1.39-3.25-3.73-2.65-6.4,.64-2.89,2.51-4.56,5.55-4.76,2.76-.19,4.84,.79,5.89,3.48,.88,2.27,.81,3.84-2.36,3.58-2.04-.17-4.12-.03-7.03-.03Z" style="fill:#f3f6fd;"/><path d="M79.05,109.78c.8,.16,1.66,.2,2.4,.53,.64,.28,1.81,.44,1.33,1.6-.36,.87-1.17,1.08-2.05,.64-1.09-.55-2.44-1.06-2.96,.35-.57,1.55,1.16,1.74,2.09,1.94,2.14,.47,4,1.3,3.82,3.72-.2,2.6-2.34,3.34-4.63,3.58-.97-.16-1.98-.19-2.89-.51-.65-.23-1.73-.47-1.33-1.61,.34-.96,1.16-1.04,2.01-.68,1.41,.6,3.27,1.27,3.75-.57,.55-2.1-1.84-1.66-3.03-2.15-1.61-.67-3.02-1.45-2.75-3.51,.31-2.48,2.21-3,4.24-3.33Z" style="fill:#eef3fd;"/><path d="M59.84,121.95c-3.49,0-6.21-.02-8.93,0-1.38,.02-2.17-.47-2.16-1.97,.02-4.63,0-9.26,.01-13.89,0-.8,0-1.82,1.03-1.93,1.47-.16,1.38,1.08,1.39,2.02,.04,2.98,.28,5.98-.04,8.92-.41,3.88,.89,5.49,4.86,4.9,1-.15,2.3-.49,3.83,1.94Z" style="fill:#fefefe;"/><path d="M353.92,76.79c-4.18,1.45-8.41,1.88-12.64,.29-1.25-.47-3.43-.79-2.22-2.88,.8-1.39,1.05-3.81,4.27-2.43,5.53,2.38,7.15,1.49,8.61-3.15-1.21-1.03-2.11,.3-3.15,.47-3.83,.63-7.04-.35-9.1-3.66-2.44-3.9-2.23-8,.49-11.67,2.29-3.09,5.55-4.4,9.22-2.65,1.79,.86,3.08-.04,4.59-.26,2.68-.13,4.27,.5,3.97,3.84-.35,3.93-.18,7.92-.06,11.88,.13,4.02-.99,7.46-3.99,10.21Z" style="fill:#fcfdfe;"/><path d="M383.04,50.17c7.12,.98,10,3.84,9.95,9.84-.05,6.09-2.99,9-9.95,9.85-1.15-.55-2.29-1.11-4.04-1.95,0,2.61-.08,4.7,.02,6.79,.1,2.01-.43,3.09-2.75,3.02-2.1-.06-2.99-.77-2.97-2.94,.07-6.99,.13-13.98-.02-20.97-.07-3.26,2.06-3.25,3.91-2.64,2.31,.76,4.07,.33,5.86-.99Z" style="fill:#fafcfe;"/><path d="M354,122.1c-.99-.04-1.99,.01-2.95-.15-1.2-.2-3.03-.31-2.61-1.97,.39-1.56,1.84-.54,2.89-.22,1,.3,2.08,.26,2.55-.82,.57-1.31-.48-1.66-1.46-1.95-2.05-.6-4.59-.96-4.19-3.86,.46-3.27,3.32-3.11,5.78-3.3,.91,.52,2.57,.51,2.26,2.01-.25,1.18-1.37,1.06-2.4,.54-.93-.47-2.19-.58-2.55,.5-.56,1.65,1.08,1.75,2.08,1.98,1.89,.43,3.47,1.02,3.67,3.29,.2,2.27-1.44,3.11-3.05,3.97Z" style="fill:#ecf3fd;"/><path d="M374.9,121.21c-2.52,.63-5.35,1.95-7.29-.66-2.09-2.82-1.29-6.31-1.09-9.57,.04-.68,.75-.99,1.49-.93,.88,.07,.97,.75,.99,1.4,.05,1.48,0,2.96,.06,4.44,.12,3.45,1.44,5.04,4.96,3.11,.98,.47,1.6,1.07,.89,2.22Z" style="fill:#e5effd;"/><path d="M382.95,110.08c.04,.27,.06,.55,.06,.83,.9,.4,1.74,.85,2.1,1.86,.44,2.13,.43,4.26,.02,6.39-.36,1.02-1.22,1.46-2.12,1.86-.02,2.61-.04,5.22-.06,7.82-1.36,.22-2.26-.17-2.26-1.73,0-5.1,0-10.2,0-15.3,0-1.56,.9-1.95,2.26-1.73Z" style="fill:#fcfdfe;"/><path d="M374.9,121.21c-.3-.74-.6-1.48-.89-2.21,1.3-2.32,.65-4.86,.84-7.31,.05-.68,.18-1.39,.92-1.53,.37-.07,1.17,.29,1.19,.51,.37,3.69,1.09,7.44-.44,11.02-.23,.53-1.18,.11-1.62-.48Z" style="fill:#fcfdfe;"/><path d="M126.22,65.95c-.94-1.23-1.88-2.47-2.89-3.8-1.03,1.6-.62,3.12-.6,4.54,.03,2.2-1.26,2.31-2.92,2.34-1.67,.02-2.84-.11-2.81-2.31,.09-7.82,.09-15.64,0-23.47-.03-2.27,1.27-2.22,2.88-2.25,1.75-.03,2.87,.33,2.83,2.42-.08,4.15-.02,8.3-.02,13.15,1.74-1.19,2.96-1.99,3.67-3.43,2.24-2.73,5.22-2.28,9.35-1.81-8.72,5.69-6.71,11.33-.22,16.73-5.89,1.57-6.2,1.48-9.26-2.11Z" style="fill:#fbfcfe;"/><path d="M136.1,113.09c-.14,2.31-.28,4.62-.43,6.93-.05,.85-.19,1.72-1.25,1.78-.35,.02-1.06-.45-1.05-.68,.1-3.66-1.24-7.42,.69-10.94,.06-.11,.61,.04,.94,.07,.63,.84,1.76,1.5,1.1,2.84Z" style="fill:#fdfdfe;"/><path d="M136.1,113.09c-.37-.95-.73-1.89-1.1-2.84,1.59,.88,3.5-1.39,5.11,.51-.68,1.97-2.92,1.19-4,2.33Z" style="fill:#e5ecfc;"/><path d="M326.01,55.99c-2.97-.4-3.21,1.67-3.3,3.74-.1,2.31-.11,4.63-.04,6.95,.06,2.12-1.18,2.36-2.87,2.36-1.64,0-2.88-.07-2.83-2.28,.11-4.47,.14-8.94-.01-13.4-.09-2.68,1.59-2.46,3.22-2.3,2.05,.2,4.17,1.22,5.89-.83,6.62,.72,8,2.11,8.25,8.55,.1,2.47-.07,4.94,.04,7.41,.09,2.09-.66,2.9-2.83,2.89-2.11,0-3-.67-2.88-2.83,.12-2.13,.14-4.29-.03-6.42-.13-1.68,.19-3.88-2.61-3.83Z" style="fill:#fcfcfe;"/><path d="M326.11,121.68c-4.68-4.79-4.42-7.94,.99-11.68,1.46,.03,2.85-.16,4.32,.64,2.06,1.11,3.65,2.63,3.39,4.83-.33,2.74-2.88,1.09-4.41,1.48-1.36,.34-2.91-.46-4.53,.8,1.51,1.99,3.08,2.88,5.35,1.44,.8-.51,1.69-1.58,2.42-.25,.84,1.54-.77,1.9-1.69,2.42-1.87,1.05-3.88,.6-5.85,.32Z" style="fill:#f4f8fd;"/><path d="M339.58,119.7c1.2,.31,2.82,.58,3.09-1.16,.23-1.44-1.45-1.45-2.52-1.76-2.04-.59-3.9-1.46-3.3-4.09,.49-2.13,2.2-2.76,4.2-2.75,1.47,0,3.66,.01,3.56,1.65-.13,2.2-1.92,.66-3.06,.48-.88-.14-1.87,.09-1.92,1.07-.06,1.18,1.17,1.47,2.03,1.67,2.49,.59,4.78,1.51,3.76,4.57-1,3-3.82,2.75-6.35,2.5-.97-.1-2.32-.42-2.24-1.49,.15-1.86,1.51-1.23,2.75-.7Z" style="fill:#eef4fd;"/><path d="M738.92,50.94c3.27,.15,6.43,.92,9.81-.4,2.53-.99,4.91,1.04,7.05,2.54,3.04,4.63,2.88,9.26-.04,13.88-3.45,3.12-7.26,3.5-11.36,1.2-1.21,3.22,.82,6.75-1.31,9.17-.93,1.05-3.45,.75-5.05-.53,.07-7.04,.11-14.09,.24-21.13,.03-1.58-.54-3.29,.66-4.73Z" style="fill:#fafdfe;"/><path d="M243.02,50.98c2.94-.88,5.83-.81,9.11,1.19,0-2.47,.23-4.27-.05-5.97-.65-4.03,.81-5.84,4.94-5.3,1.89,4.07,.64,8.37,.83,12.55,.24,5.11,.07,10.24,.08,15.36-4.64,.16-9.28,.32-13.92,.48-7.62-4.91-7.99-11.83-1-18.31Z" style="fill:#fbfcfe;"/><path d="M219.93,56.99c-2.26,2.75-1.03,5.99-1.15,8.99-.09,2.4-.91,3.07-3.23,3.11-2.49,.05-2.59-1.25-2.56-3.09,.06-3.64,.32-7.31-.06-10.91-.47-4.39,2.01-5.03,4.92-3.76,2.24,.98,2.91-.47,4.18-1.2,1.97,.25,3.83,.28,3.74,3.26-.09,3.09-2.28,2-3.78,2.46-.73,.22-1.38,.74-2.06,1.13Z" style="fill:#f7fafe;"/><path d="M220.87,121.54c-3.36,.73-6.63,1.06-8.68-2.54-2.4-4.23,.76-10.49,7.84-9.03,.62,.54,1.27,1.04,1.84,1.63,1.22,1.25,1.98,2.96,1.44,4.48-.62,1.71-2.57,.76-3.93,.88-1.6,.14-3.22,.03-5.61,.03,1.9,2.57,3.41,3.82,5.97,2.19,.78-.5,1.62-1.51,2.47-.27,1.06,1.55-1.04,1.67-1.35,2.64Z" style="fill:#f3f6fd;"/><path d="M242.87,110.37c.94,2.63-.14,2.74-2.23,1.88-.91-.38-2.11-.44-2.4,.82-.31,1.34,1.04,1.39,1.87,1.74,4.93,2.11,5.2,3.17,1.79,7.09-.99,.03-1.99,.09-2.98,.08-1.47-.02-3.61-.12-3.47-1.73,.2-2.14,1.98-.62,3.13-.42,1.05,.18,2.08,.06,2.43-1.11,.3-1.01-.48-1.42-1.32-1.67-2.35-.72-5.56-1.14-4.18-4.65,1.34-3.4,4.57-2.53,7.37-2.01Z" style="fill:#eff4fd;"/><path d="M229.09,113.09c-.14,2.31-.28,4.62-.43,6.93-.05,.85-.19,1.72-1.24,1.78-.35,.02-1.06-.45-1.05-.68,.11-3.66-1.24-7.41,.69-10.94,.06-.11,.61,.04,.94,.07,.63,.85,1.76,1.5,1.1,2.84Z" style="fill:#fdfdfe;"/><path d="M229.09,113.09c-.37-.95-.73-1.9-1.1-2.84,1.61,.73,3.48-1.15,5.15,.36-.73,2.12-2.97,1.34-4.05,2.49Z" style="fill:#e5edfc;"/><path d="M103.21,51.45c2.71-.71,5.39-1.68,8.23-.55,1.29,.52,3.46,.66,2.81,2.53-.49,1.42-1.62,3.4-4.03,2.7-3.68-1.06-6.16,.32-6,4.13,.14,3.5,2.61,4.67,6.02,3.59,2.39-.75,3.51,1.32,4.01,2.72,.66,1.87-1.51,2.01-2.8,2.53-2.84,1.14-5.52,.16-8.23-.54-6.43-5.76-6.43-12.65,0-17.13Z" style="fill:#f8fafe;"/><path d="M102.05,109.82c4.23,0,7.75,1.42,7.75,6.15,0,4.73-3.51,6.16-7.74,6.15-3.33-.45-4.68-2.7-4.94-5.72-.31-3.58,1.95-5.4,4.94-6.58Z" style="fill:#eef3fd;"/><path d="M88.55,119.68c1.26,.32,2.86,.62,3.17-1.1,.27-1.47-1.38-1.47-2.45-1.78-2.24-.63-4.31-1.66-3.24-4.44,1.15-2.98,3.82-2.69,6.32-2.08,.69,.17,1.77,.5,1.39,1.6-.3,.89-1.13,1.11-2.01,.67-1.09-.54-2.57-1.07-2.93,.35-.41,1.59,1.35,1.76,2.53,2.04,1.96,.47,3.4,1.53,3.36,3.66-.03,1.63-1.23,2.81-2.74,3.15-1.91,.44-3.96,.66-5.71-.64-.27-.2-.47-.93-.32-1.21,.67-1.23,1.63-.68,2.61-.22Z" style="fill:#eef3fd;"/><path d="M115.08,110.78c2.4-1.08,4.97-1.73,6.76,.72,2.13,2.9,1.05,6.37,.92,9.62-.03,.74-.86,.85-1.56,.69-.82-.19-.95-.86-.97-1.51-.06-1.66-.08-3.31-.06-4.97,.03-2.6-1.25-3.61-3.76-3.18-1.24,.31-1.61-.22-1.33-1.37Z" style="fill:#e4ecfc;"/><path d="M115.08,110.78c.44,.46,.89,.92,1.33,1.37-2.44,2.24-1.33,5.21-1.61,7.89-.11,1.08-.41,1.96-1.72,1.82-1.14-.13-1.03-1.1-1.04-1.87-.03-2.79-.15-5.59,.03-8.37,.17-2.67,1.67-1.74,3.01-.85Z" style="fill:#dbe6fc;"/><path d="M718.92,50.85c1.33,.27,2.3,1.38,4.07,.47,4.15-2.14,7.89-.78,10.34,2.93,2.59,3.93,2.37,8.2-.42,12.04-2.6,3.58-6.14,4.13-10.13,2.49-.44-.18-.9-.29-1.32-.42-2.11,2.94,1.98,7.37-2.53,9.58-2.29-.15-3.91-.56-3.77-3.67,.28-6.6,.25-13.22,.01-19.82-.11-3.03,1.3-3.67,3.76-3.61Z" style="fill:#fafcfe;"/><path d="M698.97,69.87c-2.67-1.38-5.6-2.65-5.01-6.47,1.07-6.98,7.54-4.88,11.94-6.72-1.3-2.36-3.24-2.74-5.12-1.77-2.06,1.07-3.96,1.55-4.84-.88-.8-2.21,1.85-2.17,2.98-3.12,9.29-1.63,12.27,.83,12.35,10.2,.02,1.83-.05,3.66,0,5.49,.04,1.61-.61,2.87-2.27,2.34-3.55-1.15-6.69,.77-10.04,.93Z" style="fill:#fafdfe;"/><path d="M648.05,51.07c4.67-.94,5.96,1.1,5.71,5.59-.14,2.55-1.85,7.09,2.45,7.33,4.96,.28,2.79-4.5,3.38-7.25,.42-1.97-1.11-4.38,1.34-5.89,3.21-.23,4.82,.84,4.42,4.46-.34,3.1-.34,6.3,0,9.4,.4,3.62-1.21,4.69-4.42,4.46-.92-.44-1.48-1.39-2.93-.6-4.11,2.26-7.45,.99-9.93-2.85,0-4.89-.01-9.78-.02-14.67Z" style="fill:#fbfdfe;"/><path d="M680.87,50.2c.95,1.92,1.23,3.84,.06,5.77-5.13-1.09-6.15,1.66-6.48,6.09-.17,2.36,2.85,7.29-3.08,6.84-5.1-.39-1.47-4.69-2.36-7.05-.49-1.31-.05-2.95-.1-4.44-.13-4.13-.74-8.45,6.03-5.82,1.64,.64,3.72-1.7,5.93-1.39Z" style="fill:#f8fcfe;"/><path d="M660.93,122.14c-3.89-.13-6.82-1.49-6.98-5.9-.18-4.76,3.13-5.95,6.98-6.45,.87,.43,2,.64,2.56,1.32,1.1,1.33,2.84,2.6,2.29,4.61-.64,2.36-2.75,1-4.19,1.22-1.41,.21-2.88,.05-4.89,.05,1.3,2.9,2.91,3.47,5.2,2.36,.93-.45,1.94-1.95,2.74-.23,.65,1.41-.95,1.79-1.88,2.31-.57,.32-1.22,.48-1.84,.71Z" style="fill:#f3f9fe;"/><path d="M199.98,69.85c-6.77-.93-7.88-2.16-7.95-8.85-.03-2.32,.05-4.64-.02-6.96-.05-1.83,.04-3.14,2.55-3.1,2.35,.04,3.31,.72,3.17,3.13-.11,1.97,.15,3.96,.24,5.94-.4,2.19-.22,4.15,2.61,4.21,2.42,.06,2.94-1.81,3.04-3.74,.11-2.15,.12-4.3,.05-6.45-.06-1.9,.26-3.06,2.64-3.09,2.45-.03,3.15,.88,3.07,3.18-.13,3.8-.28,7.63,.04,11.42,.3,3.62-1.88,4.19-4.19,3.29-2.29-.89-3.66-.09-5.26,1.01Z" style="fill:#fcfcfe;"/><path d="M200.05,121.9c-4.78-4.43-4.78-7.43,0-11.87,2.33-.35,4.57,.19,6.83,.61,.87,.94,.39,1.77-.19,2.6-.47,.44-1.02,.73-1.66,.9-1.05,.28-2.52,.26-2.64,1.64-.16,1.81,1.57,1.68,2.72,2.05,.63,.2,1.18,.48,1.66,.93,.6,.85,1.01,1.72,.16,2.65-2.29,.17-4.59,.33-6.88,.5Z" style="fill:#eff4fd;"/><path d="M206.93,121.4c-.31-.84-.63-1.69-.94-2.53-1.93-1.93-1.93-3.86,0-5.8,.3-.81,.6-1.62,.89-2.43,.41-2.5-1.94-6.51,1.31-7.07,1.73-.3,.76,4.45,.94,6.9,.23,3.12,.06,6.26,.05,9.39,0,1.58-.3,2.78-2.25,1.53Z" style="fill:#fdfdfe;"/><path d="M447.91,76.79c-2.88,1.11-5.89,1.31-8.93,1.35-1.14-.22-2.35-.26-3.4-.69-1.31-.55-3.91-.48-2.65-2.99,.8-1.61,1.18-4.11,4.58-2.59,5.32,2.37,7.24,1.29,8.25-3.36-9.86,2.01-15.87-3.43-13.08-11.86,1.68-5.09,5.92-7.37,10.9-5.47,1.74,.67,2.99,.74,4.39-.32,2.69-.13,4.27,.51,3.97,3.84-.35,3.93-.18,7.92-.05,11.88,.13,4.02-1,7.45-3.99,10.21Z" style="fill:#fcfdfe;"/><path d="M467.91,50.21c.95,1.91,1.22,3.83,.06,5.76-4.64-.99-6.5,1.11-6.33,5.59,.07,1.82,0,3.64-.02,5.47-.03,2.32-1.76,1.89-3.2,1.99-1.56,.11-2.5-.29-2.47-2.13,.07-4.64,.07-9.28,0-13.92-.03-2.01,1.31-2.32,2.59-1.9,3.31,1.08,6.27-.47,9.37-.87Z" style="fill:#f8fbfe;"/><path d="M467.97,104.68c2.61-.95,5.22-1.48,7.19,1.13,1.9,2.53,.19,4.28-1.6,5.88-.94,.84-.35,1.48,.27,1.98,.63,.51,1.05,1.86,2.29,.72,1.11-1.02,2.34-1.82,4.39-1.03-3.3,2.81-3.4,5.53,.19,8.51-4.49-2.19-8.56,.03-12.73,.14-3.74-2.63-5.03-5.61-1.07-9.09,1.21-1.06,.8-1.85,.16-2.9-1.21-2-.45-3.74,.9-5.35Z" style="fill:#f5f9fe;"/><path d="M448.98,122.11c-.84-.61-2.59-.52-2.17-2.1,.35-1.32,1.47-.81,2.44-.45,1.27,.47,2.94,.83,3.32-.83,.43-1.88-1.59-1.54-2.68-1.99-4.04-1.67-4.22-3.07-.89-6.81,.99,0,1.98-.03,2.96,.04,1.15,.08,2.83,.38,2.73,1.49-.18,2.21-1.78,1.06-2.95,.7-.86-.26-1.7-.11-2.07,.79-.49,1.18,.75,1.4,1.3,1.59,2.3,.81,5.33,1.14,4.55,4.55-.77,3.36-3.95,2.83-6.52,3.03Z" style="fill:#ecf4fd;"/><path d="M289.01,50.86c2.82-.14,2.91,2.28,3.63,3.99,.96,2.28,1.73,4.65,2.68,7.24,1.83-1.94,2.38-4.25,2.75-6.34,.76-4.27,3.2-5.35,7.02-4.74-.11,.98-.22,1.96-.33,2.94-1.63,3.9-3.47,7.72-4.81,11.72-.88,2.62-2.32,3.71-4.95,3.52-2.17,.14-3.11-1.14-3.81-3-1.44-3.81-2.85-7.66-4.67-11.3-1.54-3.09-.97-4.29,2.48-4.02Z" style="fill:#fbfcfe;"/><path d="M313.68,60c0,2.15-.09,4.31,.03,6.46,.13,2.44-1.31,2.54-3.16,2.61-1.95,.07-2.62-.64-2.58-2.57,.1-4.31,.09-8.62,0-12.93-.04-1.88,.54-2.69,2.54-2.6,1.81,.08,3.33,.09,3.2,2.56-.11,2.15-.02,4.31-.02,6.46Z" style="fill:#f5f9fe;"/><path d="M308.87,121.25c-3.78,.82-7.7,1.86-9.8-2.85-2.34-5.26,.85-8.57,7.91-8.33,.54,.75,1.25,.63,1.98,.38,.82,.93,.44,1.8-.15,2.65-.33,.35-.73,.61-1.16,.82-1.19,.58-3.36,.11-3.25,2.13,.1,1.87,2.26,1.35,3.43,2.03,.27,.16,.55,.33,.8,.54,.61,.82,1.09,1.66,.25,2.62Z" style="fill:#f5f8fd;"/><path d="M307.97,113.07c.33-.87,.66-1.73,.98-2.6,.74-.56,2.04-.56,1.99,.16-.34,5.18,1.98,10.67-1.68,15.47-1.17,.32-1.53-.19-1.33-1.29,.31-1.18,.62-2.37,.94-3.55-.3-.8-.6-1.59-.9-2.39-1.93-1.93-1.93-3.87,0-5.8Z" style="fill:#fafbfe;"/><path d="M307.18,46.68c0-.77,0-1.54,0-2.31,1.42-1.34,2.73-3.04,5.05-1.83,1.28,.67,1.86,1.76,1.78,3.24-.06,1.29-.71,2.18-1.79,2.74-2.32,1.2-3.63-.5-5.05-1.84Z" style="fill:#e9f1fd;"/><path d="M317.96,112.9c-1.57,2.25-.69,4.83-1,7.25-.07,.57-.45,1.14-.82,1.61-.06,.08-1.12-.32-1.13-.54-.29-3.69-1.14-7.45,.52-11,.24-.51,1.17-.03,1.52,.63,.81,.46,1.44,.99,.91,2.04Z" style="fill:#fbfcfe;"/><path d="M307.93,124.8c.44,.43,.89,.86,1.33,1.29-.75,.65-1.5,1.29-2.25,1.94-1.16-.02-2.33,.08-3.47-.08-1.72-.25-4.58-.36-4.13-2.38,.63-2.83,2.53-.23,3.79,.17,1.82,.57,3.19-.48,4.73-.94Z" style="fill:#e9f0fd;"/><path d="M317.96,112.9c-.3-.68-.61-1.36-.91-2.04,1.49-.29,2.88-1.8,4.6-.26-.28,2.23-2.78,1.08-3.69,2.3Z" style="fill:#d1e2fc;"/><path d="M429.19,65.02c-2.24,3.19-5.58,4.32-9.2,4.94-3.2-.86-6.41-1.6-8.36-4.75-4.41-7.11,.34-14.07,10.32-15.03,7.98,3.32,9.69,6.83,7.24,14.84Z" style="fill:#fbfcfe;"/><path d="M400.99,69.1c-3.93,.51-5.79-.77-5.09-5.11,.41-2.59,.41-5.35,0-7.94-.7-4.34,1.17-5.63,5.09-5.11,1.32,1.95,2.49,.24,3.74-.13,1.58-.47,3.44-1.18,3.85,1.35,.28,1.75,.54,3.74-2.44,3.61-3.5-.16-4.34,2.12-4.49,5.14-.14,2.74,.72,5.57-.65,8.21Z" style="fill:#f7fafe;"/><path d="M418.69,110.11c3.6,3.67,2.7,7.83,1.29,12.03-1.65-.06-3.3-.17-4.96-.15-2.22,.03-4.15-.57-4.42-3-.28-2.48,1.7-3.41,3.73-3.88,1.26-.29,2.59-.27,3.96-.4-.68-4.93-4.7-1.07-6.93-2.81,2.2-2.54,4.83-1.9,7.32-1.79Z" style="fill:#f3f7fe;"/><path d="M403.99,110.96c2.03-1.66,.67-3.94,1.03-5.9,.18-.99,.15-2.07,1.52-2,1.02,.05,1.27,.89,1.27,1.75,.02,5.09,.2,10.18-.04,15.25-.17,3.69-2.37,1.18-3.79,.92-.78-.09-1.3-.52-1.65-1.2-.18-2.53-.17-5.07-.02-7.62,.34-.69,.88-1.12,1.66-1.2Z" style="fill:#e2edfd;"/><path d="M403.99,110.96c-.39,.36-.78,.73-1.17,1.09-2.14,2.61-2.14,5.23,0,7.84,.39,.36,.78,.73,1.17,1.09-.67,.39-1.34,.77-2.01,1.16-3.9-.12-6.81-1.59-6.93-5.93-.13-4.6,2.77-6.27,6.93-6.42,.67,.39,1.34,.78,2,1.17Z" style="fill:#ebf3fd;"/><path d="M383.01,121.02c.32-.67,.65-1.35,.97-2.02q4.34-3.03,0-6.06c-.32-.67-.65-1.35-.97-2.02,5.73-1.76,9.06-.56,9.98,3.59,1.26,5.71-3.22,8.64-9.98,6.52Z" style="fill:#eef5fd;"/><path d="M511.1,113.26c-1.15-2.13-1.15-4.45-1.14-6.79,.02-12.44,0-24.89,0-37.33,3.7-2.44,7.61-2.89,11.75-1.24,1.46,1.46,1.24,3.34,1.25,5.15,.01,10.93,.03,21.86-.02,32.79,0,1.88,.62,4.12-1.9,5.12-3.18,1.32-6.59,1.65-9.93,2.31Z" style="fill:#0095f8;"/><path d="M548.96,50.86c7.27-1.04,5.16,5.93,7.93,9.28,1.94-2.77,2.33-5.94,3.14-8.94h5.91c-1.97,5.47-3.94,10.61-5.64,15.83-.61,1.87-1.85,2.03-3.34,2.15-1.97,0-3.4-.5-3.89-2.82-.53-2.56-1.52-5.03-2.67-8.65-.77,2.51-1.5,4.05-1.69,5.65-.55,4.66-2.87,6.68-7.58,5.59-1.79-4.99-3.39-10.07-5.45-14.95-1.21-2.86,.2-3.05,2.27-3.14,2.13-.12,3.23,.93,3.83,2.95,.69,2.33,1.06,4.81,2.6,6.8,2.51-2.85,.5-7.69,4.56-9.75Z" style="fill:#fcfdfe;"/><path d="M521.71,67.9c-3.74,2.03-7.71,1.94-11.75,1.24-1.39-.88-2.48-1.86-.9-3.48,.96-.98,1.63-2.75,3.58-1.31,.62,.46,1.53,.63,2.32,.71,.76,.07,1.79,.21,2.06-.84,.28-1.1-.71-1.33-1.45-1.64-.46-.2-.95-.3-1.43-.45-7.08-2.21-7.99-5.38-3.12-10.9,3.76-1.25,7.41-1,10.95,.8-.6,2.7-1.57,4.66-4.96,3.15-.94-.42-2.58-.74-2.83,.84-.24,1.54,1.49,1.49,2.47,1.82,7.16,2.4,7.97,3.98,5.05,10.06Z" style="fill:#f9fbfe;"/><path d="M511.1,113.26c2.7-3.4,6.08-3.86,9.93-2.31q3,5.93-3.93,6.04c-.95,.02-1.89,.11-3.39,.2,1.59,2.67,3.24,3.55,5.61,1.89,1.43-1,2.35-1.14,2.66,.89-4.85,3.16-6.78,2.93-10.89-1.29,0-1.8,0-3.61,0-5.41Z" style="fill:#f4f9fe;"/><path d="M527.6,119.71c1.18,.28,2.58,.49,2.95-.93,.41-1.59-1.12-1.63-2.21-1.93-2.48-.67-4.66-1.82-3.25-4.83,1.22-2.6,3.77-2.33,6.12-1.77,.7,.17,1.78,.48,1.46,1.58-.27,.94-1.11,1.14-1.99,.73-1.1-.51-2.47-1.09-2.96,.38-.51,1.53,1.19,1.7,2.16,1.93,2.36,.56,4.34,1.59,3.61,4.31-.74,2.76-3.26,3.02-5.71,2.78-1.24-.12-3.14-.03-2.93-1.78,.21-1.83,1.73-.8,2.76-.47Z" style="fill:#ecf4fd;"/><path d="M539.96,109.78c.66,.07,1.34,.07,1.98,.24,1.03,.26,2.64,.23,2.21,1.86-.33,1.25-1.46,.88-2.47,.44-.94-.42-2.14-.52-2.45,.74-.34,1.36,1.03,1.55,1.9,1.73,2.11,.44,4.01,1.12,3.87,3.69-.17,3.14-2.68,3.37-5.04,3.67-.49-.07-1.03-.03-1.46-.22-.87-.4-2.76,.52-2.4-1.49,.27-1.49,1.4-1.51,2.68-.9,1.31,.62,2.8,.67,3.16-1.05,.25-1.2-1.11-1.38-2.05-1.64-1.79-.49-3.7-.97-3.77-3.26-.08-2.5,1.86-3.23,3.83-3.82Z" style="fill:#ecf5fe;"/><path d="M274.95,50.21c.96,1.91,1.21,3.83,.06,5.76-4.66-1-6.51,1.13-6.33,5.62,.07,1.82,.01,3.65-.02,5.48-.04,2.34-1.81,1.85-3.23,1.96-1.59,.12-2.47-.34-2.44-2.16,.07-4.65,.05-9.3,0-13.95-.01-1.57,.85-2.26,2.14-1.85,3.44,1.1,6.56-.44,9.81-.86Z" style="fill:#f7fafe;"/><path d="M263.03,110.91c5.94-1.82,9.42-.42,9.99,4.02,.71,5.55-3.52,8.12-9.99,6.09-.58-1.05-.09-1.84,.61-2.58,1-1.22,3.69-.31,3.7-2.46,.01-2.17-2.68-1.27-3.7-2.46-.7-.75-1.19-1.56-.61-2.6Z" style="fill:#eef4fd;"/><path d="M264,119c-.32,.67-.65,1.35-.97,2.02-.02,2.13-.02,4.27-.06,6.4-.01,.65-.17,1.31-1.02,1.35-.83,.03-1.16-.55-1.16-1.24-.03-5.41-.15-10.83,.03-16.24,.05-1.59,1.19-1.8,2.21-.38,.32,.67,.65,1.35,.97,2.02,1.58,2.02,1.58,4.04,0,6.07Z" style="fill:#fcfdfe;"/><path d="M277.4,44.17c1.27-1.31,2.56-2.67,4.64-1.73,1.3,.58,2,1.61,2,3.09,0,1.48-.7,2.51-2,3.09-2.08,.94-3.37-.42-4.64-1.73,0-.91,0-1.81,0-2.72Z" style="fill:#e9f1fd;"/><path d="M275.92,122.02c-1.41-4.03-1.41-8.07,0-12.1,0,0,.08,.04,.08,.04,2.05,4.01,1.37,8.02,0,12.03l-.08,.04Z" style="fill:#007bf4;"/><path d="M596.95,40.87c2.88,.9,1.4,3.29,1.63,5.03,.23,1.77,.05,3.6,.05,5.84,4.06-1.62,7.68-2.2,10.62,1.28,1.61,5.27,1.14,10.64,.74,16-4.86,.99-5.62-1.53-5.52-5.71,.07-2.66,1.89-7.38-3.01-7.29-4.38,.08-2.23,4.56-2.86,7.16-.49,2.02,1.43,4.71-1.66,6-3.14,.33-4.21-.94-4.08-4.19,.27-6.63,.27-13.29,0-19.92-.13-3.25,.94-4.52,4.08-4.19Z" style="fill:#fcfdfe;"/><path d="M635.9,69.86c-3.24-.08-6.27-.87-9-2.66-4.12-6.5-3.91-9.62,1.04-15.21,2.31-.82,4.57-1.93,7.13-1.6,4.45,.59,7.79,2.68,8.79,7.31,1.06,4.96-.84,8.69-5.29,10.96-.87,.44-1.77,.8-2.66,1.2Z" style="fill:#fbfdfe;"/><path d="M610.95,122.05c-4.47-5.72-4.24-8.36,1.03-11.97,1.47-.08,2.86-.26,4.33,.55,2.01,1.11,3.71,2.54,3.45,4.81-.32,2.83-2.88,1.11-4.4,1.52-1.35,.36-2.91-.46-4.53,.84,1.73,2.18,3.51,2.92,5.78,1.06,.84-.68,1.57-.66,2.05,.14,.55,.92-.29,1.45-.95,1.96-2.06,1.59-4.51,.71-6.76,1.09Z" style="fill:#f4f9fe;"/><path d="M626.99,112c-2.86,2.53-1.92,5.84-1.84,8.97-.19,.25-.33,.62-.59,.73-1.02,.42-2.17,.34-2.18-.94-.02-3.5-1.06-7.16,.62-10.44,.61-1.19,1.95,.37,2.95,.69,.6,.07,.94,.41,1.04,1Z" style="fill:#ddf0fe;"/><path d="M626.99,112c-.35-.33-.69-.67-1.04-1,.09-.23,.14-.46,.14-.7,2.31-.39,4.92-1.06,6.29,1.45,1.57,2.87,.95,6.15,.67,9.28-.03,.29-.68,.68-1.08,.74-.84,.11-1.11-.57-1.14-1.25-.07-1.49-.09-2.99-.09-4.48,0-2.53-.87-4.22-3.76-4.03Z" style="fill:#f7fbfe;"/><path d="M278,59.81c0-1.99,.1-3.99-.03-5.97-.14-2.09,.52-2.95,2.77-2.89,2.05,.06,3.05,.58,2.99,2.81-.11,4.14-.1,8.29,0,12.43,.05,2.14-.76,2.87-2.9,2.89-2.13,.02-3-.62-2.85-2.81,.15-2.15,.03-4.31,.03-6.46Z" style="fill:#f5f8fe;"/><path d="M292.92,110.01c5.38,4.58,5.38,7.33,0,11.91-5.9,.09-8.56-1.55-8.87-5.46-.34-4.34,2.7-6.54,8.87-6.45Z" style="fill:#eef4fd;"/><path d="M276,121.98c-.52-4.01-.52-8.02,0-12.03,.79,.08,1.71-.16,2.06,.9,.81,.46,1.44,.99,.91,2.04-1.39,1.89-.86,4.07-.95,6.16-.06,1.42,.34,3.12-2.03,2.93Z" style="fill:#fbfcfe;"/><path d="M278.97,112.9c-.3-.68-.61-1.36-.91-2.04,1.49-.29,2.88-1.8,4.6-.26-.28,2.23-2.78,1.07-3.69,2.3Z" style="fill:#d1e1fc;"/><path d="M483.97,50.95c1.17,1.15,2.61,2.14,3.45,3.5,1.22,1.98,2.25,4.45,1.08,6.59-.97,1.8-3.33,.72-5.07,.84-2.13,.15-4.28,.03-6.8,.03,.62,3.15,2.76,3.89,4.7,2.9,2.4-1.22,4.96-1.84,5.76,.68,.96,3.03-2.71,2.84-4.51,3.88-.28,.17-.56,.35-.83,.53-8.63-.46-13.49-6.62-10.68-13.54,1.94-4.78,6.36-6.63,12.9-5.42Z" style="fill:#f9fbfe;"/><path d="M499.75,69.9c3.36,.65,3.21,3.25,3.21,5.77,0,11.38,0,22.75,0,34.13-.85,1.55-2.2,2.26-3.92,2.36-1.43-.64-3.04-.97-4.08-2.31,0-11.45,0-22.9,0-34.35,0-2.15,.17-4.33-1-6.3,2.23-2.22,4.09-1.39,5.78,.71Z" style="fill:#0092f7;"/><path d="M499.75,69.9c-1.93-.24-3.86-.47-5.78-.71-.85-1.01-3.87-.74-2.05-3.34,1.08-1.54,2.17-2.79,4.37-1.2,1.02,.73,3.01,1.23,3.7-.62,.43-1.16-1.12-1.43-1.99-1.65-3.43-.85-7.18-1.45-6.84-6.19,.34-4.7,4.26-5.28,7.81-6.12,.96,.27,1.95,.46,2.87,.83,1.26,.51,3.54,.51,2.84,2.54-.53,1.51-1.84,3.24-4.27,1.9-1.05-.58-2.8-1.1-3.21,.79-.26,1.2,1.26,1.39,2.13,1.59,3.33,.76,6.75,1.36,6.93,5.78,.18,4.45-3.68,4.92-6.5,6.4Z" style="fill:#f9fbfe;"/><path d="M494.97,109.84c1.44,.25,3.1-.16,4.07,1.41,.67,.49,2.43-.29,1.89,1.62-1.56,2.89,.84,6.62-1.96,9.25-1.95-1.75-.8-4.03-.97-6.06-.28-3.48-1.4-5.16-4.97-2.98-1.12-.57-1.76-1.32-1.03-2.62,1.15,.56,2.04-.16,2.97-.63Z" style="fill:#fbfcfe;"/><path d="M491.99,110.48c.34,.87,.69,1.74,1.03,2.62-.15,2.44-.3,4.88-.46,7.32-.05,.69-.31,1.32-1.08,1.35-.38,.02-1.12-.33-1.12-.51,.03-3.72-1.4-7.56,.8-11.11,.03-.04,.54,.22,.82,.34Z" style="fill:#fcfdfe;"/><path d="M637.01,114.97c.07-.49,.34-1.32,.18-1.41-3.18-1.79-.52-3.72-.18-5.58,3.7-3.47,2.64,4.04,5.55,2.4,.79,2.13-1.24,1.2-1.88,1.79-1.84,1.69-.69,6.55,2.06,9.05-4.86,1.15-5.01,1-5.72-6.24Z" style="fill:#edf7fe;"/><path d="M645.85,122.02c-1.41-4.03-1.41-8.07,0-12.1,0,0,.07,.03,.07,.03,2.06,4.01,1.38,8.02,0,12.03l-.07,.04Z" style="fill:#00abfb;"/><path d="M579.05,110.01c-.26-.43-.73-.85-.73-1.28-.11-12.95-.19-25.91-.23-38.86,0-1.25,.79-2.15,1.78-2.86,2.43-.31,4.31,.35,5.1,2.91,0,11.15-.03,22.3,.02,33.45,.01,2.52-.23,4.98-1.02,7.37-1.87,1.28-3.47,.85-4.91-.74Z" style="fill:#00a0fa;"/><path d="M584.95,69.93c-1.76-.87-4.12-.69-5.1-2.91-.05-.35-.1-.7-.16-1.05-.8-3.2,.45-6.55-.75-9.72-1.34-.7-3.06-.74-2.96-3.13,.09-2.31,1.76-1.91,2.96-2.42,1.64-1.29-.52-6.13,3.11-4.72,3.19,1.24,5.63,4.61,8.1,7.31,.64,.7-.16,2.42-1.7,2.33-3.31-.19-3.26,1.91-3.18,4.21,.08,2.35-.27,4.95,3.35,4.77,1.42-.07,1.61,.84,1.64,1.9,.03,1.17,.14,2.43-1.4,2.77-1.29,.28-2.61,.44-3.91,.65Z" style="fill:#fbfdfe;"/><path d="M579.05,110.01c1.71-.26,3.34,.03,4.91,.74,.98,1.98,5.68,3.7,.85,6.08-1.78,.88-4.37,.14-7.44,.14,1.73,2.56,3.12,3.49,5.3,2.58,1.04-.44,2.13-2.35,3.11-.32,.61,1.26-1.31,1.6-1.89,2.51-7.32,.56-9.35-1.27-8.96-7.16,.2-3.03,2.5-3.3,4.13-4.58Z" style="fill:#f4f9fe;"/><path d="M597.94,110.82c2.2-.76,4.44-1.33,6.75-.58,.69,.23,1.77,.4,1.58,1.47-.18,1.01-1.08,1.24-1.93,.89-3.34-1.37-5.38-.06-5.44,3.28-.06,3.3,1.92,4.77,5.29,3.53,.9-.33,1.69-.28,1.96,.73,.31,1.13-.77,1.34-1.46,1.56-2.31,.73-4.55,.15-6.75-.59-2.8-3.43-2.64-6.86,0-10.29Z" style="fill:#e9f4fe;"/><path d="M438.98,109.79c1.07,.41,2.23,.66,3.18,1.25,1.7,1.05,2.52,2.98,2.19,4.7-.45,2.34-2.73,.99-4.18,1.2-1.55,.22-3.15,.05-5.7,.05,2.35,2.64,3.95,3.87,6.43,2.03,.85-.63,1.84-1.22,2.39,.16,.49,1.24-.77,1.72-1.56,2.09-3.22,1.54-6.07,.73-8.59-1.63-.35-1.55-.71-3.1-1.06-4.65,1.36-2.98,2.99-5.61,6.91-5.2Z" style="fill:#f3f7fe;"/><path d="M430.84,111.67c-1.54,.37-3.4,.22-3.22,2.75,.18,2.61-.82,5.64,3.24,6.71-3.63,1.21-5.8,.94-5.96-3.41-.08-2.1,1.38-4.61-1.97-6.33-1.36-.7,2.82-1.6,2.55-3.97-.08-.66,1.88-.44,2.01,.73,.27,2.27,2.13,1.61,3.35,2.13,0,.46,0,.93,0,1.39Z" style="fill:#e9f2fd;"/><path d="M249.78,120.94c-.95,.94,.02,3.67-2.5,3.86-1.27,.1-.92-1.05-.61-1.79,.6-1.42,.04-3.58,2.25-3.99,1.06-.19,1.43,.57,.86,1.91Z" style="fill:#dde8fc;"/><path d="M556.82,111.28c.84,3.59,1.42,7.17,.14,10.79-1.56-.6-3.07-.54-4.74-.19-2.19,.45-4.66,.16-5.09-2.59-.47-3,1.87-3.9,4.33-4.3,1.09-.18,2.2-.21,3.45-.33-.89-4.84-4.92-.75-6.73-2.64,3.16-2.69,4.1-2.77,8.64-.74Z" style="fill:#eef6fe;"/><path d="M572.95,69.11c-.03,13.7-.06,27.39-.1,41.09-1.13,1.06-2.26,2.13-4.01,1.85-1.2-.45-2.46-.83-2.89-2.27,0-10.94,0-21.88,0-32.82,0-2.85,.16-5.65,2.1-7.98,1.67-1.44,3.32-1.69,4.9,.13Z" style="fill:#009ef9;"/><path d="M572.95,69.11c-1.63-.04-3.27-.09-4.9-.13,0-5.97,0-11.94,0-17.91,1.58-1.89,3.23-.96,4.89-.14,1.17,6.06,1.15,12.12,.02,18.18Z" style="fill:#f5fafe;"/><path d="M568.95,110.97c1.25-.54,2.42-1.42,3.9-.77-.74,5.55,1.66,11.5-2.17,16.65-2.61,1.2-5.33,1.7-8.05,.65-.82-.32-2.67-.27-2.08-2.01,.52-1.53,1.72-1.26,2.73-.42,1.13,.94,2.34,1.02,3.66,.61,1-1.27,1.73-2.59,.88-4.24-.4-.56-.77-1.13-.89-1.83,.39-2.47,.13-4.97,.36-7.45,.34-.68,.88-1.1,1.65-1.18Z" style="fill:#e9f3fe;"/><path d="M567.87,119.93c.36,.34,.72,.69,1.08,1.03,.17,1.81-.89,1.53-2,1.18-3.79-.11-6.71-1.32-6.95-5.69-.22-4.13,1.88-6.3,5.95-6.67,1.04,.3,2.3,.03,3,1.19-.38,.36-.77,.71-1.15,1.07-2.19,2.65-2.26,5.29,.07,7.9Z" style="fill:#ebf5fe;"/><path d="M567.99,43.13c1.61-1.18,3.27-1.12,4.97-.19,1.99,2.39,1,4.24-1.08,5.89-1.75,1.67-2.95,.99-3.88-.9-.84-1.6-.85-3.2,0-4.8Z" style="fill:#e9f4fe;"/><path d="M567.99,47.94c1.22,.62,2.43,1.27,3.88,.9,.35,.7,.71,1.39,1.06,2.09-1.63,.05-3.26,.09-4.89,.14-1.12-1.02-.51-2.08-.05-3.13Z" style="fill:#009ef9;"/><path d="M566.95,122.14c.67-.39,1.33-.79,2-1.18,2.31,2.83,.2,3.79-2,4.7,0-1.17,0-2.35,0-3.52Z" style="fill:#009ef9;"/><path d="M645.92,121.98c-.53-4.01-.53-8.02,0-12.03,.79,.08,1.7-.14,2.06,.91,.81,.46,1.44,.99,.91,2.05-1.37,1.88-.87,4.06-.95,6.14-.06,1.42,.32,3.11-2.03,2.93Z" style="fill:#fbfdfe;"/><path d="M648.9,112.9c-.3-.68-.61-1.37-.91-2.05,1.48-.3,2.88-1.78,4.56-.28-.25,2.25-2.69,1.18-3.65,2.33Z" style="fill:#d1ebfe;"/><path d="M500.93,112.88c-.63-.54-1.26-1.08-1.89-1.62,1.31-.49,2.62-.97,3.92-1.46,2.79,.07,4.54,1.46,5.22,4.17-.08,2.66-.16,5.32-.24,7.99-4-.42-1.73-3.48-2.11-5.31-.59-2.86-.5-6.09-4.92-3.77Z" style="fill:#f4f9fe;"/><path d="M578.95,56.24c1.44,3.15,.23,6.5,.75,9.72-1.43-3.15-.47-6.48-.75-9.72Z" style="fill:#00a0fa;"/><path d="M177.4,55.75c3.63-.09,5.16,1.45,5.21,4.17,.05,2.69-1.35,4.4-4.22,4.4-2.75,0-4.39-1.35-4.44-4.19-.06-2.82,1.48-4.22,3.46-4.37Z" style="fill:#0774f2;"/><path d="M143.77,114.64c2.73-3.15,4.77-3.59,7.36,0h-7.36Z" style="fill:#0470f2;"/><path d="M91.14,62.46c-.18,2.3-1.86,2.96-3.72,3.18-1.4,.17-2.93-.36-2.8-1.97,.18-2.33,2.35-2.4,4.09-2.61,1.01-.13,2.46-.48,2.43,1.41Z" style="fill:#1675f2;"/><path d="M63.38,114.61c3.09-3.56,3.64-3.55,6.23,.07-2.09,.35-4.12,.52-6.23-.07Z" style="fill:#046bf1;"/><path d="M348.17,55.7c2.6,.28,4.16,1.52,4.15,4.08,0,2.73-1.51,4.33-4.27,4.26-2.47-.07-4.03-1.56-4.08-4.03-.06-2.76,1.7-4.06,4.2-4.31Z" style="fill:#0483f5;"/><path d="M382.84,64.32c-2.66-.17-4.06-1.66-3.99-4.48,.07-2.6,1.44-4.02,4.01-4.09,2.81-.08,4.37,1.35,4.4,4.2,.03,2.82-1.44,4.28-4.43,4.37Z" style="fill:#0586f5;"/><path d="M383.98,112.93c2.01-1,4.06-1.58,5.68,.54,1.2,1.57,1.2,3.41,0,4.98-1.62,2.12-3.67,1.55-5.68,.54-1.25-2.02-1.25-4.04,0-6.06Z" style="fill:#0988f5;"/><path d="M331.95,114.53c-2.01,.71-3.88,.51-5.84,.16,2.49-3.63,2.81-3.65,5.84-.16Z" style="fill:#0f85f5;"/><path d="M752.2,59.87c-.02,2.77-1.32,4.4-4.18,4.4-2.83,0-4.24-1.53-4.22-4.35,.02-2.57,1.34-4.05,3.91-4.16,2.78-.12,4.35,1.24,4.49,4.1Z" style="fill:#05b9fd;"/><path d="M247.9,64.32c-2.68-.27-4.12-1.81-3.96-4.6,.16-2.87,1.94-4.1,4.67-3.96,2.66,.13,3.74,1.77,3.73,4.32-.02,2.89-1.5,4.24-4.44,4.25Z" style="fill:#0379f3;"/><path d="M213.79,114.59c2.6-3.01,4.62-3.62,7.28,0h-7.28Z" style="fill:#0476f3;"/><path d="M107.17,115.97c-.12,2.35-1.38,3.85-3.69,3.88-2.37,.03-3.6-1.57-3.6-3.89,0-2.32,1.23-3.91,3.61-3.88,2.31,.03,3.56,1.53,3.68,3.89Z" style="fill:#046df2;"/><path d="M725.02,64.31c-2.57-.05-4.17-1.33-4.22-4.2-.05-2.54,1.15-4.14,3.73-4.34,2.72-.2,4.5,1.01,4.65,3.91,.14,2.74-1.1,4.41-4.17,4.63Z" style="fill:#05b6fd;"/><path d="M702.14,65.66c-1.49-.1-2.93-.65-2.62-2.22,.42-2.15,2.53-2.22,4.29-2.42,1.16-.13,2.41-.09,2.16,1.68-.32,2.25-2.07,2.64-3.82,2.96Z" style="fill:#16b7fc;"/><path d="M656.23,114.64c2.75-3.14,4.62-3.31,7.13-.29-2.45,.9-4.31,.63-7.13,.29Z" style="fill:#0faffc;"/><path d="M205.99,113.07c.84,1.93,.84,3.86,0,5.8-2.15,1.1-4.3,1.84-6.06-.61-1.06-1.48-1.06-3.09,0-4.57,1.75-2.46,3.9-1.71,6.06-.61Z" style="fill:#107af4;"/><path d="M442.15,55.71c2.59,.28,4.15,1.52,4.14,4.08,0,2.73-1.51,4.33-4.27,4.26-2.46-.07-4.02-1.56-4.08-4.03-.06-2.76,1.69-4.06,4.2-4.31Z" style="fill:#048df6;"/><path d="M473.89,117.48c-.48,1.47-1.6,2.2-2.93,2.35-1.91,.21-3.24-.79-3.44-2.7-.18-1.65,.78-3.17,2.43-3.05,1.88,.13,2.75,2.11,3.94,3.4Z" style="fill:#0690f7;"/><path d="M470.85,106.11c1.5-.09,2.2,.6,2.31,1.66,.13,1.29-.6,2.2-1.91,2.4-1.22,.19-1.87-.77-2.02-1.69-.21-1.29,.68-2.06,1.61-2.37Z" style="fill:#1895f7;"/><path d="M307.97,113.07c.82,1.93,.82,3.87,0,5.8-2.17,1.23-4.32,1.82-6.1-.57-1.1-1.48-1.01-3.12,.02-4.6,1.75-2.48,3.91-1.75,6.08-.63Z" style="fill:#0f82f5;"/><path d="M424.57,60.59c-.08,1.84-1.18,3.64-4.09,3.71-2.73,.06-4.45-1.2-4.57-4.04-.12-2.77,1.29-4.39,4.09-4.52,2.75-.13,4.39,1.18,4.58,4.85Z" style="fill:#078bf6;"/><path d="M416.19,116.94c.83,.25,2.35-.41,2.03,1.23-.23,1.16-1.3,1.8-2.59,1.78-1.01,0-2.34-.09-2.31-1.2,.04-1.64,1.73-1.5,2.87-1.82Z" style="fill:#0f8ef6;"/><path d="M402.82,119.89c-2.88,.24-4.96-.75-4.96-3.92,0-3.17,2.07-4.16,4.96-3.92,3.03,2.61,3.03,5.23,0,7.84Z" style="fill:#0187f6;"/><path d="M513.27,114.6c2.73-3.11,4.61-3.28,7.33,0h-7.33Z" style="fill:#0f99f8;"/><path d="M264,119c-1.25-2.02-1.25-4.04,0-6.07,2.01-1,4.06-1.58,5.69,.54,1.2,1.57,1.2,3.41,0,4.98-1.63,2.13-3.67,1.54-5.69,.54Z" style="fill:#097df4;"/><path d="M638.53,60.12c-.19,2.72-1.6,4.25-4.42,4.17-2.77-.08-4.28-1.57-4.24-4.36,.04-2.82,1.67-4.19,4.41-4.2,2.86,0,4.13,1.66,4.25,4.39Z" style="fill:#07aafb;"/><path d="M617.06,114.56c-2.27,.58-4.06,.54-5.87,.14,2.14-3.6,2.52-3.63,5.87-.14Z" style="fill:#0fa8fa;"/><path d="M290.52,111.98c2.27,.46,3.64,1.69,3.57,4.08-.07,2.37-1.43,3.82-3.74,3.78-2.37-.03-3.55-1.67-3.51-3.98,.04-2.34,1.37-3.61,3.68-3.88Z" style="fill:#047df4;"/><path d="M476.2,57.95c.95-3.19,2.83-3.62,5.15-2.86,.99,.33,1.98,1.71,1.38,2.21-1.74,1.47-3.99,.54-6.54,.64Z" style="fill:#0892f7;"/><path d="M577.51,114.65q3.56-3.29,6.42-.12c-2.03,.71-3.9,.48-6.42,.12Z" style="fill:#0fa3fa;"/><path d="M441.5,114.63c-2.07,.49-4.09,.5-6.18,.01,2.96-3.58,3.53-3.58,6.18-.01Z" style="fill:#048cf6;"/><path d="M554.95,117.45c-.78,2.44-2.37,2.77-4.27,2.21-.55-.16-1.13-.86-.55-1.52,1.37-1.55,2.99-1.38,4.82-.69Z" style="fill:#109ff9;"/><path d="M567.87,119.93c-2.81,.14-5.06-.62-5.05-3.91,0-3.2,2.07-4.21,4.98-3.98,3.08,2.6,2.94,5.24,.07,7.9Z" style="fill:#029ef9;"/></g></g></svg>