<?xml version="1.0" encoding="UTF-8"?><svg id="Layer_2" xmlns="http://www.w3.org/2000/svg" viewBox="0 0 225 225">
    <defs>
        <style>
            .cls-1 {
                fill: #fff;
            }

            .cls-2 {
                fill: #ffbf00;
            }

            .cls-2,
            .cls-3 {
                stroke: #000;
                stroke-miterlimit: 10;
                stroke-width: 4px;
            }

            .cls-4 {
                fill: lime;
            }

            .cls-5,
            .cls-3 {
                fill: red;
            }
        </style>
    </defs>
    <g id="Layer_1-2">
        <g>
            <rect id="bground" class="cls-1" width="225" height="225" />
            <circle id="red-light" class="cls-3" cx="34.84" cy="34.93" r="28.11" />
            <g id="initial-b">
                <path
                    d="M51.15,42.04c0,6.12-5.72,10.33-15.34,10.33H19.67V15.92h14.93c10.22,0,15.03,4.05,15.03,9.46,0,3.34-2.18,6.53-6.68,7.9v.1c5.16,.91,8.2,4.81,8.2,8.66ZM29.74,23.51v6.88h3.75c4.71,0,5.92-1.47,5.92-3.44s-1.21-3.44-5.92-3.44h-3.75Zm11.19,17.51c0-2.02-1.57-3.69-5.97-3.69h-5.21v7.44h5.21c4.4,0,5.97-1.72,5.97-3.75Z" />
            </g>
            <g id="romley">
                <path
                    d="M90.2,46.79v.43h-7.77c-.61-.64-1-1.32-1.57-2.6l-1.43-3.28c-.75-1.75-1.85-2.53-3.42-2.53h-1.39v8.42h-7.2V21.55h10.09c6.99,0,11.02,2.85,11.02,7.7,0,3.39-2.25,5.78-5.28,6.95v.14c1.39,.57,2.21,1.39,3.17,3.57l1.46,3.32c.71,1.64,1.28,2.46,2.32,3.57Zm-13.19-13.69c3.03,0,4.24-1.28,4.24-2.82s-1.21-2.82-4.24-2.82h-2.46v5.63h2.46Z" />
                <path
                    d="M118.05,34.38c0,8.02-5.99,13.27-13.55,13.27s-13.55-5.24-13.55-13.27,5.99-13.26,13.55-13.26,13.55,5.24,13.55,13.26Zm-7.35,0c0-4.1-2.57-6.85-6.2-6.85s-6.2,2.75-6.2,6.85,2.57,6.85,6.2,6.85,6.2-2.75,6.2-6.85Z" />
                <path
                    d="M151.43,21.55v25.67h-6.45v-10.16l.04-3.6-1.43,3.46-4.42,10.31h-5.21l-4.42-10.31-1.43-3.46,.04,3.6v10.16h-6.45V21.55h7.35l6.03,12.05,1.6,3.57,1.6-3.57,5.81-12.05h7.35Z" />
                <path class="cls-5" d="M163.19,21.55v19.58h11.48v6.1h-18.69V21.55h7.2Z" />
                <path d="M196.67,21.55v6.03h-11.52v3.71h10.09v6.03h-10.09v3.89h11.91v6.03h-19.11V21.55h18.72Z" />
                <path
                    d="M223.95,21.55l-9.31,16.19v9.49h-7.2v-9.49l-9.31-16.19h7.95l3.6,6.49,1.6,3.32,1.68-3.32,3.39-6.49h7.6Z" />
            </g>
            <g id="green-light">
                <circle class="cls-4" cx="34.84" cy="190.15" r="28.11" />
                <path
                    d="M34.84,220.26c-16.6,0-30.11-13.51-30.11-30.11s13.51-30.11,30.11-30.11,30.11,13.51,30.11,30.11-13.51,30.11-30.11,30.11Zm0-56.22c-14.4,0-26.11,11.71-26.11,26.11s11.71,26.11,26.11,26.11,26.11-11.71,26.11-26.11-11.71-26.11-26.11-26.11Z" />
            </g>
            <g id="initial-s">
                <path
                    d="M50.82,173.24l-2.83,8.35c-3.85-1.16-8.55-1.92-11.94-1.92s-4.71,.81-4.71,2.23,1.16,2.18,6.88,3.39c9.62,2.02,13.56,5.72,13.56,11.39,0,6.98-5.47,12-16.15,12-5.67,0-10.17-.56-15.54-2.18l2.83-8.4c3.95,1.21,8.25,1.92,12.7,1.92,3.59,0,5.16-.81,5.16-2.38,0-1.47-1.42-2.18-6.63-3.24-9.72-1.97-13.46-5.11-13.46-11.79,0-7.04,5.77-11.59,15.08-11.59,5.26,0,10.43,.76,15.03,2.23Z" />
            </g>
            <g id="chool">
                <path
                    d="M88.49,178.25l-2.1,5.88c-1.64-.68-3.53-1.11-5.53-1.11-4.17,0-7.06,2.75-7.06,6.81s2.89,6.81,7.06,6.81c2.18,0,3.82-.43,5.63-1.21l2.07,5.88c-2.53,1.18-5.14,1.78-8.45,1.78-7.49,0-13.66-5.13-13.66-13.27s6.17-13.26,13.66-13.26c3.1,0,5.92,.57,8.38,1.68Z" />
                <path d="M99.18,177v9.41h8.7v-9.41h7.2v25.67h-7.2v-10.16h-8.7v10.16h-7.2v-25.67h7.2Z" />
                <path
                    d="M145.83,189.84c0,8.02-5.99,13.27-13.55,13.27s-13.55-5.24-13.55-13.27,5.99-13.26,13.55-13.26,13.55,5.24,13.55,13.26Zm-7.35,0c0-4.1-2.57-6.85-6.2-6.85s-6.2,2.75-6.2,6.85,2.57,6.85,6.2,6.85,6.2-2.75,6.2-6.85Z" />
                <path
                    d="M175.64,189.84c0,8.02-5.99,13.27-13.55,13.27s-13.55-5.24-13.55-13.27,5.99-13.26,13.55-13.26,13.55,5.24,13.55,13.26Zm-7.35,0c0-4.1-2.57-6.85-6.2-6.85s-6.2,2.75-6.2,6.85,2.57,6.85,6.2,6.85,6.2-2.75,6.2-6.85Z" />
                <path class="cls-5" d="M186.47,177v19.58h11.48v6.1h-18.69v-25.67h7.2Z" />
            </g>
            <circle id="amber-light" class="cls-2" cx="34.84" cy="112.5" r="28.11" />
            <g id="initial-d">
                <path
                    d="M32.76,93.97c13.16,0,22.02,6.88,22.02,18.22s-8.6,18.22-21.66,18.22h-14.37v-36.44h14.02Zm11.69,18.22c0-5.77-4.1-9.57-12.2-9.57h-3.29v19.13h3.64c8,0,11.84-3.8,11.84-9.57Z" />
            </g>
            <g id="riving">
                <path
                    d="M90.2,124.88v.43h-7.77c-.61-.64-1-1.32-1.57-2.6l-1.43-3.28c-.75-1.75-1.85-2.53-3.42-2.53h-1.39v8.42h-7.2v-25.67h10.09c6.99,0,11.02,2.85,11.02,7.7,0,3.39-2.25,5.78-5.28,6.95v.14c1.39,.57,2.21,1.39,3.17,3.57l1.46,3.32c.71,1.64,1.28,2.46,2.32,3.57Zm-13.19-13.69c3.03,0,4.24-1.28,4.24-2.82s-1.21-2.82-4.24-2.82h-2.46v5.63h2.46Z" />
                <path d="M99.61,99.64v25.67h-7.2v-25.67h7.2Z" />
                <path
                    d="M127.5,99.64l-10.13,25.85h-5.35l-10.13-25.85h7.95l3.46,9.88,1.64,4.96,1.53-4.96,3.42-9.88h7.6Z" />
                <path d="M136.98,99.64v25.67h-7.2v-25.67h7.2Z" />
                <path
                    d="M165.65,99.64v25.71h-5.96l-8.52-9.52-2.75-3.39,.04,3.53v9.34h-6.92v-25.75h5.53l9.13,10.66,2.57,3.32-.04-3.42v-10.48h6.92Z" />
                <path
                    d="M193,100.78l-1.96,5.88c-1.96-.61-3.85-1-6.24-1-4.78,0-8.17,2.75-8.17,6.99,0,4.6,2.89,6.67,6.28,6.67,1.89,0,3.28-.18,4.39-.53v-2.53h-4.71v-5.49h11.91v12.34c-3.28,1.71-7.49,2.64-11.66,2.64-7.38,0-13.55-4.42-13.55-13.27,0-8.13,6.7-13.26,14.87-13.26,3.39,0,6.35,.53,8.84,1.57Z" />
            </g>
        </g>
    </g>
</svg>