<?xml version="1.0" encoding="UTF-8"?><svg id="Layer_2" xmlns="http://www.w3.org/2000/svg" viewBox="0 0 131.5 26.53"><defs><style>.cls-1{fill:red;}</style></defs><g id="Layer_1-2"><g id="chool"><path d="M22.04,1.68l-2.1,5.88c-1.64-.68-3.53-1.11-5.53-1.11-4.17,0-7.06,2.75-7.06,6.81s2.89,6.81,7.06,6.81c2.18,0,3.82-.43,5.63-1.21l2.07,5.88c-2.53,1.18-5.14,1.78-8.45,1.78C6.17,26.53,0,21.4,0,13.26S6.17,0,13.66,0c3.1,0,5.92,.57,8.38,1.68Z"/><path d="M32.73,.43V9.84h8.7V.43h7.2V26.1h-7.2V15.94h-8.7v10.16h-7.2V.43h7.2Z"/><path d="M79.37,13.26c0,8.02-5.99,13.27-13.55,13.27s-13.55-5.24-13.55-13.27S58.26,0,65.82,0s13.55,5.24,13.55,13.26Zm-7.35,0c0-4.1-2.57-6.85-6.2-6.85s-6.2,2.75-6.2,6.85,2.57,6.85,6.2,6.85,6.2-2.75,6.2-6.85Z"/><path d="M109.18,13.26c0,8.02-5.99,13.27-13.55,13.27s-13.55-5.24-13.55-13.27S88.07,0,95.63,0s13.55,5.24,13.55,13.26Zm-7.35,0c0-4.1-2.57-6.85-6.2-6.85s-6.2,2.75-6.2,6.85,2.57,6.85,6.2,6.85,6.2-2.75,6.2-6.85Z"/><path class="cls-1" d="M120.02,.43V20h11.48v6.1h-18.69V.43h7.2Z"/></g></g></svg>