<?xml version="1.0" encoding="UTF-8"?><svg id="Layer_2" xmlns="http://www.w3.org/2000/svg" viewBox="0 0 127.08 26.53"><g id="Layer_1-2"><g id="riving"><path d="M22.79,25.67v.43h-7.77c-.61-.64-1-1.32-1.57-2.6l-1.43-3.28c-.75-1.75-1.85-2.53-3.42-2.53h-1.39v8.42H0V.43H10.09c6.99,0,11.02,2.85,11.02,7.7,0,3.39-2.25,5.78-5.28,6.95v.14c1.39,.57,2.21,1.39,3.17,3.57l1.46,3.32c.71,1.64,1.28,2.46,2.32,3.57ZM9.59,11.98c3.03,0,4.24-1.28,4.24-2.82s-1.21-2.82-4.24-2.82h-2.46v5.63h2.46Z"/><path d="M32.2,.43V26.1h-7.2V.43h7.2Z"/><path d="M60.08,.43l-10.13,25.85h-5.35L34.48,.43h7.95l3.46,9.88,1.64,4.96,1.53-4.96L52.49,.43h7.6Z"/><path d="M69.57,.43V26.1h-7.2V.43h7.2Z"/><path d="M98.24,.43V26.14h-5.96l-8.52-9.52-2.75-3.39,.04,3.53v9.34h-6.92V.36h5.53l9.13,10.66,2.57,3.32-.04-3.42V.43h6.92Z"/><path d="M125.58,1.57l-1.96,5.88c-1.96-.61-3.85-1-6.24-1-4.78,0-8.17,2.75-8.17,6.99,0,4.6,2.89,6.67,6.28,6.67,1.89,0,3.28-.18,4.39-.53v-2.53h-4.71v-5.49h11.91v12.34c-3.28,1.71-7.49,2.64-11.66,2.64-7.38,0-13.55-4.42-13.55-13.27,0-8.13,6.7-13.26,14.87-13.26,3.39,0,6.35,.53,8.84,1.57Z"/></g></g></svg>