<?xml version="1.0" encoding="UTF-8"?><svg id="Layer_2" xmlns="http://www.w3.org/2000/svg" viewBox="0 0 156.54 26.53"><defs><style>.cls-1{fill:red;}</style></defs><g id="Layer_1-2"><g id="romley"><path d="M22.79,25.67v.43h-7.77c-.61-.64-1-1.32-1.57-2.6l-1.43-3.28c-.75-1.75-1.85-2.53-3.42-2.53h-1.39v8.42H0V.43H10.09c6.99,0,11.02,2.85,11.02,7.7,0,3.39-2.25,5.78-5.28,6.95v.14c1.39,.57,2.21,1.39,3.17,3.57l1.46,3.32c.71,1.64,1.28,2.46,2.32,3.57ZM9.59,11.98c3.03,0,4.24-1.28,4.24-2.82s-1.21-2.82-4.24-2.82h-2.46v5.63h2.46Z"/><path d="M50.64,13.26c0,8.02-5.99,13.27-13.55,13.27s-13.55-5.24-13.55-13.27S29.52,0,37.08,0s13.55,5.24,13.55,13.26Zm-7.35,0c0-4.1-2.57-6.85-6.2-6.85s-6.2,2.75-6.2,6.85,2.57,6.85,6.2,6.85,6.2-2.75,6.2-6.85Z"/><path d="M84.01,.43V26.1h-6.45V15.94l.04-3.6-1.43,3.46-4.42,10.31h-5.21l-4.42-10.31-1.43-3.46,.04,3.6v10.16h-6.45V.43h7.35l6.03,12.05,1.6,3.57,1.6-3.57L76.67,.43h7.35Z"/><path class="cls-1" d="M95.78,.43V20h11.48v6.1h-18.69V.43h7.2Z"/><path d="M129.26,.43V6.45h-11.52v3.71h10.09v6.03h-10.09v3.89h11.91v6.03h-19.11V.43h18.72Z"/><path d="M156.54,.43l-9.31,16.19v9.49h-7.2v-9.49L130.72,.43h7.95l3.6,6.49,1.6,3.32,1.68-3.32,3.39-6.49h7.6Z"/></g></g></svg>